<svg id="svg" version="1.1" xmlns="http://www.w3.org/2000/svg" xmlns:xlink="http://www.w3.org/1999/xlink" width="400" height="164.57142857142858" viewBox="0, 0, 400,164.57142857142858"><g id="svgg"><path id="path0" d="M208.741 41.814 C 206.850 42.673,205.771 44.430,205.758 46.672 C 205.748 48.467,206.407 50.208,206.719 49.208 C 206.769 49.048,207.082 48.167,207.415 47.250 C 207.748 46.333,208.160 45.171,208.330 44.667 C 208.499 44.163,208.831 43.244,209.068 42.625 C 209.304 42.006,209.479 41.502,209.457 41.504 C 209.435 41.506,209.113 41.645,208.741 41.814 M184.012 46.939 C 183.557 47.518,183.559 47.540,184.342 51.143 C 186.524 61.176,186.297 60.500,187.494 60.500 C 188.243 60.500,188.832 59.923,188.835 59.186 C 188.836 58.824,189.042 58.625,190.043 58.015 C 190.707 57.611,192.690 56.388,194.451 55.298 C 197.641 53.322,197.654 53.316,198.284 53.504 C 199.625 53.903,200.311 53.146,200.008 51.603 C 199.509 49.071,199.364 48.595,199.003 48.303 C 198.469 47.870,197.733 47.919,197.232 48.419 L 196.813 48.839 193.531 48.412 C 191.727 48.177,189.667 47.916,188.955 47.833 C 186.794 47.579,186.463 47.482,186.037 46.976 C 185.486 46.321,184.512 46.303,184.012 46.939 M178.997 51.006 C 178.562 51.818,178.880 52.044,180.980 52.413 C 182.522 52.684,182.793 52.634,182.940 52.051 C 183.093 51.439,182.656 51.116,181.371 50.890 C 179.665 50.590,179.207 50.613,178.997 51.006 M180.667 53.806 C 178.926 54.192,178.510 54.672,179.297 55.384 C 179.710 55.757,182.750 55.112,183.104 54.576 C 183.724 53.636,182.777 53.337,180.667 53.806 M204.392 54.115 C 204.067 54.179,202.554 55.501,199.726 58.192 C 198.476 59.381,198.640 59.382,196.930 58.167 C 196.156 57.617,195.387 57.168,195.220 57.170 C 194.701 57.175,191.755 59.064,191.704 59.424 C 191.658 59.742,196.542 64.627,197.398 65.119 C 198.611 65.817,201.319 64.539,201.711 63.083 C 201.812 62.709,202.593 60.518,203.256 58.750 C 203.497 58.108,203.830 57.171,203.996 56.667 C 204.163 56.163,204.456 55.356,204.647 54.875 C 204.838 54.394,204.940 54.010,204.873 54.023 C 204.805 54.035,204.589 54.077,204.392 54.115 M181.878 56.398 C 180.054 57.648,179.798 58.056,180.519 58.561 C 180.944 58.859,181.130 58.799,182.417 57.948 C 184.185 56.777,184.426 56.450,183.905 55.929 C 183.493 55.516,182.997 55.631,181.878 56.398 M207.125 100.456 L 206.333 100.518 206.330 103.884 C 206.327 106.796,206.135 110.005,205.728 113.958 L 205.620 115.000 206.602 115.000 L 207.583 115.000 207.593 110.958 C 207.604 106.472,207.797 102.809,208.002 103.178 C 208.286 103.688,211.833 114.446,211.833 114.796 C 211.833 115.129,211.917 115.167,212.656 115.167 C 213.968 115.167,214.229 114.998,214.488 113.976 C 214.755 112.926,215.467 110.620,216.876 106.250 L 217.896 103.083 218.029 104.000 C 218.260 105.601,218.478 111.314,218.379 113.191 L 218.283 115.000 219.642 115.000 C 220.619 115.000,220.999 114.942,220.997 114.792 C 220.995 114.677,220.921 114.096,220.833 113.500 C 220.530 111.447,220.171 106.243,220.127 103.272 L 220.083 100.293 219.000 100.396 C 218.404 100.452,217.719 100.498,217.477 100.499 C 217.106 100.500,217.020 100.592,216.927 101.089 C 216.639 102.620,213.614 112.605,213.356 112.873 C 213.291 112.941,212.950 112.153,212.599 111.123 C 210.632 105.361,209.330 101.399,209.236 100.900 C 209.119 100.278,209.189 100.293,207.125 100.456 M262.566 100.451 L 261.881 100.517 261.520 101.835 C 261.321 102.560,260.742 104.488,260.232 106.119 C 259.723 107.749,259.155 109.571,258.970 110.167 C 258.512 111.645,257.690 113.619,257.219 114.375 L 256.829 115.000 258.147 115.000 L 259.466 115.000 259.661 113.625 C 259.769 112.869,259.985 111.763,260.141 111.167 L 260.425 110.083 262.788 110.037 L 265.152 109.991 265.743 111.856 C 266.068 112.882,266.333 113.891,266.333 114.097 C 266.333 114.957,266.423 115.000,268.204 115.000 L 269.873 115.000 269.419 114.405 C 268.570 113.292,265.798 106.089,264.677 102.083 C 264.158 100.228,264.237 100.289,262.566 100.451 M130.167 101.306 C 130.167 102.335,130.156 102.329,131.381 102.080 C 131.951 101.964,132.852 101.818,133.384 101.755 L 134.351 101.640 134.301 108.320 L 134.250 115.000 135.561 115.000 C 136.848 115.000,136.870 114.993,136.743 114.625 C 136.586 114.167,136.432 102.625,136.576 102.053 C 136.691 101.595,137.416 101.605,139.576 102.095 C 140.122 102.219,140.583 102.304,140.599 102.285 C 140.615 102.266,140.682 101.856,140.747 101.375 L 140.865 100.500 135.516 100.500 L 130.167 100.500 130.167 101.306 M142.965 101.625 C 143.121 103.105,143.118 112.623,142.961 113.958 L 142.838 115.000 144.167 115.000 L 145.495 115.000 145.381 113.958 C 145.318 113.385,145.263 111.829,145.259 110.500 L 145.250 108.083 148.500 108.083 L 151.750 108.083 151.743 110.750 C 151.739 112.217,151.685 113.773,151.621 114.208 L 151.506 115.000 152.842 115.000 L 154.178 115.000 154.049 114.125 C 153.880 112.985,153.878 103.083,154.046 101.625 L 154.176 100.500 152.819 100.500 L 151.461 100.500 151.560 100.958 C 151.615 101.210,151.710 102.635,151.773 104.125 L 151.885 106.833 148.500 106.833 L 145.115 106.833 145.226 104.292 C 145.287 102.894,145.384 101.469,145.441 101.125 L 145.544 100.500 144.195 100.500 L 142.846 100.500 142.965 101.625 M158.955 102.125 C 159.118 104.193,159.122 111.437,158.960 113.458 L 158.837 115.000 163.147 115.000 L 167.457 115.000 167.562 114.348 C 167.619 113.989,167.717 113.564,167.779 113.402 C 167.870 113.163,167.832 113.133,167.571 113.242 C 166.715 113.596,165.067 113.822,163.305 113.827 L 161.360 113.833 161.253 112.792 C 161.194 112.219,161.169 110.925,161.198 109.917 L 161.250 108.083 163.443 108.099 L 165.636 108.115 165.892 107.463 L 166.148 106.812 163.699 106.848 L 161.250 106.884 161.250 104.317 L 161.250 101.750 163.000 101.750 C 163.962 101.750,165.171 101.800,165.686 101.861 L 166.622 101.971 166.811 101.341 C 166.915 100.995,167.000 100.664,167.000 100.606 C 167.000 100.548,165.161 100.500,162.913 100.500 L 158.827 100.500 158.955 102.125 M175.622 102.083 C 175.813 104.322,175.757 113.460,175.547 114.292 L 175.369 115.000 176.786 115.000 C 178.072 115.000,178.191 114.973,178.077 114.708 C 178.008 114.548,177.916 113.251,177.873 111.827 L 177.795 109.237 179.439 109.240 C 183.042 109.248,184.983 107.727,185.128 104.781 C 185.286 101.551,183.746 100.608,178.289 100.592 L 175.495 100.583 175.622 102.083 M188.476 101.166 C 188.631 102.006,188.609 113.630,188.451 114.375 L 188.318 115.000 189.617 115.000 L 190.917 115.000 190.857 111.750 C 190.779 107.482,190.712 107.482,193.727 111.750 L 196.022 115.000 197.715 115.000 C 199.344 115.000,199.392 114.990,198.995 114.725 C 197.948 114.025,193.378 108.678,193.620 108.435 C 193.676 108.379,193.878 108.333,194.069 108.332 C 195.811 108.324,197.659 106.179,197.659 104.167 C 197.659 101.441,196.232 100.628,191.392 100.600 L 188.368 100.583 188.476 101.166 M224.957 101.708 C 225.027 102.373,225.083 105.092,225.083 107.750 C 225.083 110.408,225.027 113.127,224.957 113.792 L 224.831 115.000 229.147 115.000 L 233.463 115.000 233.574 114.375 C 233.635 114.031,233.727 113.607,233.778 113.433 C 233.854 113.176,233.814 113.140,233.561 113.245 C 232.718 113.595,231.061 113.822,229.312 113.827 L 227.374 113.833 227.253 111.095 C 227.102 107.680,226.914 107.935,229.507 108.040 L 231.632 108.126 231.890 107.469 L 232.148 106.812 229.699 106.848 L 227.250 106.885 227.195 105.984 C 227.164 105.489,227.191 104.303,227.254 103.350 L 227.369 101.617 229.643 101.722 C 230.893 101.779,232.075 101.872,232.268 101.926 C 232.567 102.012,232.655 101.914,232.870 101.263 L 233.121 100.500 228.976 100.500 L 224.831 100.500 224.957 101.708 M236.799 101.323 C 236.959 102.356,236.949 113.403,236.788 114.305 L 236.658 115.027 240.454 114.972 L 244.250 114.917 245.361 114.373 C 247.950 113.106,249.151 110.555,248.950 106.750 C 248.699 102.012,246.732 100.623,240.216 100.584 L 236.682 100.563 236.799 101.323 M252.466 101.375 C 252.617 102.503,252.619 113.553,252.469 114.375 L 252.354 115.000 253.676 115.000 L 254.997 115.000 254.873 113.208 C 254.714 110.889,254.715 104.963,254.876 102.458 L 255.001 100.500 253.675 100.500 L 252.349 100.500 252.466 101.375 M181.566 101.967 C 183.439 103.065,183.249 106.903,181.266 108.018 C 180.582 108.402,179.212 108.523,178.292 108.281 L 177.833 108.160 177.833 104.924 L 177.833 101.688 178.375 101.611 C 179.316 101.479,181.064 101.674,181.566 101.967 M194.333 101.971 C 195.128 102.351,195.413 103.002,195.408 104.424 C 195.400 106.596,194.601 107.386,192.321 107.475 L 190.833 107.533 190.833 104.610 L 190.833 101.688 191.375 101.614 C 192.251 101.494,193.705 101.670,194.333 101.971 M244.417 102.349 C 247.281 103.835,247.620 112.114,244.865 113.287 C 244.203 113.569,240.377 113.797,239.597 113.602 L 239.167 113.494 239.167 107.647 L 239.167 101.801 241.375 101.859 C 243.363 101.911,243.666 101.960,244.417 102.349 M264.095 106.598 C 264.409 107.615,264.667 108.534,264.667 108.640 C 264.667 108.776,264.075 108.833,262.680 108.833 L 260.694 108.833 260.861 108.208 C 261.317 106.502,262.360 102.954,262.526 102.546 C 262.707 102.101,262.730 102.134,263.119 103.417 C 263.341 104.150,263.780 105.582,264.095 106.598 M147.833 120.087 C 147.833 120.134,148.028 120.482,148.266 120.858 C 148.573 121.345,148.679 121.706,148.633 122.105 C 148.588 122.488,148.636 122.667,148.783 122.667 C 148.927 122.667,149.000 122.427,149.000 121.950 C 149.000 121.556,149.094 121.128,149.208 121.000 C 149.384 120.803,149.373 120.799,149.140 120.974 C 148.849 121.193,148.333 120.706,148.333 120.213 C 148.333 120.096,148.221 120.000,148.083 120.000 C 147.946 120.000,147.833 120.039,147.833 120.087 M152.512 120.439 C 151.917 121.196,152.273 122.674,153.048 122.664 C 153.190 122.662,153.195 122.625,153.067 122.539 C 152.443 122.123,152.332 120.950,152.862 120.386 C 153.062 120.174,153.142 120.000,153.041 120.000 C 152.940 120.000,152.702 120.198,152.512 120.439 M154.155 120.439 C 154.345 120.681,154.500 121.083,154.500 121.333 C 154.500 121.584,154.345 121.986,154.155 122.228 C 153.965 122.469,153.884 122.667,153.976 122.667 C 154.275 122.667,154.833 121.799,154.833 121.333 C 154.833 120.868,154.275 120.000,153.976 120.000 C 153.884 120.000,153.965 120.198,154.155 120.439 M157.500 121.051 C 157.500 122.121,157.676 122.537,158.208 122.721 C 158.611 122.862,158.575 122.627,158.153 122.363 C 157.849 122.173,157.813 122.014,157.861 121.073 C 157.901 120.295,157.859 119.999,157.708 120.000 C 157.564 120.000,157.500 120.322,157.500 121.051 M159.472 121.249 C 159.434 122.097,159.480 122.521,159.613 122.572 C 159.750 122.624,159.825 122.251,159.863 121.323 C 159.901 120.392,159.859 119.999,159.722 120.000 C 159.595 120.000,159.507 120.437,159.472 121.249 M162.833 121.333 C 162.833 122.289,162.892 122.667,163.042 122.667 C 163.180 122.667,163.240 122.430,163.220 121.958 C 163.203 121.569,163.184 120.969,163.178 120.625 C 163.155 119.360,162.833 120.021,162.833 121.333 M163.875 120.180 C 164.035 120.273,164.167 120.530,164.167 120.750 C 164.167 120.970,164.035 121.227,163.875 121.320 C 163.715 121.413,163.665 121.492,163.766 121.495 C 164.335 121.511,164.745 120.296,164.236 120.101 C 163.813 119.939,163.557 119.995,163.875 120.180 M170.326 120.346 C 170.064 120.837,170.218 121.101,171.002 121.501 C 171.776 121.896,171.832 122.281,171.165 122.618 C 170.927 122.739,170.859 122.829,171.005 122.831 C 171.944 122.840,172.284 121.809,171.488 121.367 C 170.462 120.799,170.396 120.721,170.626 120.343 C 170.743 120.153,170.764 120.000,170.674 120.000 C 170.585 120.000,170.428 120.156,170.326 120.346 M175.417 121.333 C 175.417 122.289,175.476 122.667,175.625 122.667 C 175.774 122.667,175.833 122.289,175.833 121.333 C 175.833 120.378,175.774 120.000,175.625 120.000 C 175.476 120.000,175.417 120.378,175.417 121.333 M179.512 120.439 C 178.917 121.196,179.273 122.674,180.048 122.664 C 180.190 122.662,180.195 122.625,180.067 122.539 C 179.454 122.130,179.343 121.077,179.845 120.439 C 180.035 120.198,180.116 120.000,180.024 120.000 C 179.933 120.000,179.702 120.198,179.512 120.439 M181.093 120.237 C 181.341 120.418,181.417 120.674,181.417 121.333 C 181.417 121.992,181.341 122.249,181.093 122.430 C 180.915 122.560,180.859 122.667,180.968 122.667 C 181.392 122.667,181.833 122.001,181.833 121.362 C 181.833 120.755,181.325 120.000,180.916 120.000 C 180.835 120.000,180.915 120.106,181.093 120.237 M184.638 121.333 C 184.708 123.066,185.000 123.067,185.000 121.333 C 185.000 120.378,184.941 120.000,184.792 120.000 C 184.638 119.999,184.598 120.348,184.638 121.333 M185.708 120.180 C 185.869 120.273,186.000 120.530,186.000 120.750 C 186.000 120.970,185.869 121.227,185.708 121.320 C 185.548 121.413,185.499 121.492,185.599 121.495 C 185.851 121.502,186.333 120.944,186.333 120.645 C 186.333 120.323,186.000 119.999,185.675 120.005 C 185.462 120.009,185.468 120.040,185.708 120.180 M189.401 120.738 C 189.648 121.160,189.833 121.731,189.833 122.071 C 189.833 122.436,189.914 122.667,190.042 122.667 C 190.177 122.667,190.250 122.409,190.250 121.933 C 190.250 121.529,190.204 121.227,190.148 121.261 C 190.092 121.296,189.912 121.026,189.748 120.662 C 189.584 120.298,189.341 120.000,189.209 120.000 C 189.028 120.000,189.076 120.184,189.401 120.738 M199.513 120.292 C 198.794 120.880,199.063 122.667,199.871 122.667 C 199.970 122.667,199.910 122.511,199.738 122.320 C 199.545 122.107,199.424 121.726,199.424 121.333 C 199.424 120.941,199.545 120.559,199.738 120.347 C 200.120 119.924,199.999 119.894,199.513 120.292 M201.000 120.333 C 201.222 120.556,201.333 120.889,201.333 121.333 C 201.333 121.778,201.222 122.111,201.000 122.333 C 200.817 122.517,200.742 122.667,200.833 122.667 C 201.238 122.667,201.667 121.981,201.667 121.333 C 201.667 120.686,201.238 120.000,200.833 120.000 C 200.742 120.000,200.817 120.150,201.000 120.333 M204.472 121.259 C 204.526 122.499,204.729 122.833,205.428 122.833 C 205.657 122.833,205.446 122.525,205.167 122.452 C 204.873 122.375,204.833 122.224,204.833 121.182 C 204.833 120.348,204.772 120.000,204.625 120.000 C 204.472 119.999,204.431 120.333,204.472 121.259 M206.473 121.006 C 206.506 121.588,206.452 122.107,206.344 122.237 C 206.203 122.407,206.220 122.485,206.412 122.559 C 206.624 122.640,206.667 122.477,206.667 121.592 C 206.667 121.006,206.712 120.409,206.768 120.264 C 206.829 120.103,206.781 120.000,206.643 120.000 C 206.471 119.999,206.430 120.242,206.473 121.006 M209.713 121.333 C 209.762 123.092,210.083 123.093,210.083 121.334 C 210.083 120.395,210.023 120.001,209.880 120.000 C 209.733 120.000,209.686 120.374,209.713 121.333 M210.891 120.305 C 211.235 120.685,211.239 120.899,210.906 121.175 C 210.670 121.371,210.670 121.405,210.906 121.537 C 211.051 121.618,211.167 121.902,211.167 122.175 C 211.167 122.490,211.252 122.667,211.405 122.667 C 211.687 122.667,211.474 121.690,211.148 121.488 C 211.009 121.402,211.028 121.266,211.220 120.992 C 211.524 120.558,211.335 120.000,210.885 120.000 C 210.638 120.000,210.639 120.026,210.891 120.305 M217.367 120.200 C 216.945 120.622,217.138 121.145,217.850 121.509 C 218.423 121.801,218.522 121.924,218.457 122.264 C 218.394 122.592,218.423 122.633,218.606 122.481 C 219.057 122.106,218.875 121.523,218.208 121.206 C 217.708 120.968,217.585 120.818,217.590 120.454 C 217.594 120.204,217.590 120.000,217.582 120.000 C 217.573 120.000,217.477 120.090,217.367 120.200 M222.333 121.333 C 222.333 122.289,222.392 122.667,222.542 122.667 C 222.691 122.667,222.750 122.289,222.750 121.333 C 222.750 120.378,222.691 120.000,222.542 120.000 C 222.392 120.000,222.333 120.378,222.333 121.333 M226.500 121.333 C 226.500 122.289,226.559 122.667,226.708 122.667 C 226.847 122.667,226.907 122.430,226.886 121.958 C 226.870 121.569,226.851 120.969,226.845 120.625 C 226.822 119.360,226.500 120.021,226.500 121.333 M227.625 120.184 C 227.927 120.497,227.881 121.123,227.542 121.320 C 227.381 121.413,227.332 121.492,227.433 121.495 C 228.096 121.513,228.392 120.142,227.750 120.027 C 227.480 119.979,227.457 120.009,227.625 120.184 M232.106 120.250 C 232.054 120.388,232.071 120.500,232.145 120.500 C 232.219 120.500,232.419 120.987,232.590 121.583 C 232.782 122.257,232.988 122.667,233.134 122.667 C 233.289 122.667,233.331 122.568,233.257 122.375 C 233.195 122.215,232.981 121.615,232.781 121.042 C 232.408 119.972,232.274 119.814,232.106 120.250 M236.532 121.333 C 236.496 122.340,236.537 122.666,236.700 122.665 C 236.857 122.664,236.925 122.295,236.948 121.332 C 236.971 120.390,236.921 120.000,236.780 120.000 C 236.646 120.000,236.565 120.435,236.532 121.333 M240.711 121.332 C 240.736 122.186,240.817 122.664,240.938 122.665 C 241.065 122.666,241.120 122.228,241.105 121.334 C 241.090 120.400,241.022 120.001,240.877 120.001 C 240.728 120.000,240.682 120.365,240.711 121.332 M245.345 120.439 C 244.538 121.466,245.321 122.893,246.650 122.818 C 246.797 122.810,246.668 122.732,246.363 122.644 C 245.354 122.353,245.104 120.855,245.956 120.208 C 246.206 120.018,246.207 120.000,245.961 120.000 C 245.812 120.000,245.535 120.198,245.345 120.439 M250.591 120.708 C 250.820 121.109,250.997 121.688,250.998 122.042 C 250.999 122.442,251.078 122.667,251.217 122.667 C 251.531 122.667,251.389 121.573,250.963 120.708 C 250.771 120.319,250.518 120.000,250.400 120.000 C 250.256 120.000,250.318 120.230,250.591 120.708 M164.219 121.722 C 164.282 121.890,164.333 122.171,164.333 122.347 C 164.333 122.523,164.408 122.667,164.500 122.667 C 164.775 122.667,164.688 121.891,164.385 121.645 C 164.138 121.444,164.118 121.453,164.219 121.722 M186.070 121.722 C 186.123 121.890,186.167 122.171,186.167 122.347 C 186.167 122.523,186.242 122.667,186.333 122.667 C 186.590 122.667,186.531 122.102,186.236 121.740 C 185.995 121.444,185.981 121.443,186.070 121.722 M227.885 121.722 C 227.948 121.890,228.000 122.171,228.000 122.347 C 228.000 122.523,228.102 122.667,228.227 122.667 C 228.527 122.667,228.387 121.917,228.034 121.630 C 227.809 121.448,227.788 121.461,227.885 121.722 M247.056 121.784 C 247.295 121.846,247.338 121.961,247.253 122.307 C 247.121 122.840,247.405 122.607,247.576 122.042 C 247.675 121.712,247.632 121.669,247.220 121.686 C 246.911 121.699,246.855 121.732,247.056 121.784 M231.197 122.249 C 231.093 122.479,231.072 122.667,231.151 122.667 C 231.289 122.667,231.539 121.983,231.437 121.882 C 231.410 121.854,231.302 122.020,231.197 122.249 M217.167 122.496 C 217.167 122.633,217.993 122.896,218.097 122.792 C 218.128 122.761,217.932 122.651,217.660 122.549 C 217.389 122.446,217.167 122.423,217.167 122.496 " stroke="none" fill="#030303" fill-rule="evenodd"></path><path id="path1" d="M0.000 82.250 L 0.000 164.500 200.000 164.500 L 400.000 164.500 400.000 82.250 L 400.000 0.000 200.000 0.000 L 0.000 0.000 0.000 82.250 M213.592 41.671 C 216.989 43.292,217.812 47.704,215.236 50.486 C 211.840 54.154,205.816 51.995,205.538 47.012 C 205.300 42.749,209.715 39.821,213.592 41.671 M186.101 46.901 C 186.597 47.383,186.844 47.486,187.718 47.576 C 188.286 47.635,189.275 47.754,189.917 47.841 C 190.558 47.928,192.347 48.155,193.891 48.347 L 196.699 48.695 197.091 48.326 C 197.598 47.849,198.668 47.799,199.144 48.230 C 199.667 48.703,200.438 52.178,200.166 52.834 C 199.820 53.670,198.514 54.080,197.960 53.527 C 197.850 53.417,197.702 53.401,197.596 53.488 C 197.497 53.569,196.067 54.463,194.417 55.475 C 188.867 58.877,189.000 58.785,189.000 59.228 C 189.000 59.843,188.143 60.667,187.504 60.667 C 186.598 60.667,186.115 59.995,185.765 58.250 C 185.599 57.425,185.398 56.487,185.318 56.167 C 184.815 54.159,183.623 48.310,183.607 47.775 C 183.567 46.401,185.051 45.881,186.101 46.901 M181.155 50.755 C 183.016 51.084,183.577 51.603,182.891 52.362 C 182.556 52.731,182.090 52.742,180.401 52.419 C 179.069 52.164,178.840 52.013,178.836 51.387 C 178.830 50.514,179.209 50.411,181.155 50.755 M183.071 53.595 C 183.846 54.370,183.223 55.029,181.372 55.395 C 179.586 55.747,179.403 55.739,179.093 55.296 C 178.498 54.447,178.911 54.043,180.759 53.667 C 182.651 53.282,182.755 53.279,183.071 53.595 M209.295 55.669 C 211.147 57.960,211.100 57.952,212.552 56.167 C 213.185 55.387,213.931 54.496,214.209 54.186 L 214.715 53.622 216.208 53.735 C 219.930 54.016,221.530 56.152,221.025 60.167 C 220.927 60.946,220.653 63.083,220.416 64.917 C 220.179 66.750,219.910 68.850,219.818 69.583 C 219.505 72.087,219.114 72.898,217.812 73.750 L 217.048 74.250 216.858 75.917 C 216.753 76.833,216.481 79.271,216.252 81.333 C 216.024 83.396,215.762 85.758,215.670 86.583 C 215.579 87.408,215.431 88.758,215.343 89.583 C 214.808 94.572,214.814 94.543,214.237 95.125 L 213.700 95.667 211.275 95.667 C 207.691 95.667,207.610 95.599,207.246 92.289 C 207.113 91.076,206.927 89.408,206.833 88.583 C 206.644 86.920,206.353 84.222,205.837 79.333 C 205.649 77.546,205.425 75.483,205.340 74.750 C 205.255 74.017,205.102 72.592,205.001 71.583 C 204.899 70.575,204.749 69.188,204.667 68.500 C 204.585 67.813,204.388 65.992,204.230 64.454 C 204.071 62.917,203.890 61.679,203.827 61.704 C 203.765 61.729,202.934 62.489,201.982 63.393 C 198.765 66.445,198.406 66.400,194.265 62.436 C 190.844 59.161,190.877 59.449,193.722 57.770 C 195.348 56.811,195.215 56.802,196.944 58.000 C 197.737 58.550,198.431 59.000,198.487 59.000 C 198.602 59.000,198.821 58.804,201.774 56.055 C 202.979 54.933,204.141 53.975,204.357 53.925 C 204.718 53.842,206.915 53.714,207.498 53.742 C 207.635 53.748,208.443 54.615,209.295 55.669 M183.914 55.771 C 184.462 56.319,184.169 56.844,182.750 57.855 C 181.247 58.926,180.657 59.061,180.242 58.428 C 179.856 57.838,180.113 57.487,181.714 56.415 C 183.175 55.437,183.488 55.345,183.914 55.771 M209.262 100.625 C 209.630 102.274,213.197 112.707,213.339 112.545 C 213.401 112.474,213.807 111.292,214.243 109.917 C 214.678 108.542,215.099 107.229,215.179 107.000 C 215.496 106.091,216.833 101.182,216.833 100.929 C 216.833 100.562,217.349 100.398,218.851 100.288 L 220.119 100.196 220.235 103.806 C 220.368 107.906,220.711 112.288,221.087 114.708 L 221.158 115.167 219.746 115.167 L 218.333 115.167 218.333 112.289 C 218.333 109.102,218.050 104.154,217.856 103.957 C 217.744 103.844,217.341 105.043,215.406 111.250 C 215.091 112.258,214.759 113.314,214.667 113.595 C 214.575 113.877,214.500 114.219,214.500 114.355 C 214.500 114.896,214.083 115.142,212.975 115.255 L 211.868 115.369 211.750 114.809 C 211.551 113.863,210.178 109.663,208.602 105.179 C 208.362 104.499,208.167 103.902,208.167 103.854 C 208.167 103.806,208.084 103.849,207.983 103.950 C 207.861 104.073,207.769 105.973,207.708 109.650 L 207.616 115.167 206.536 115.167 L 205.457 115.167 205.555 114.375 C 205.916 111.469,206.179 107.383,206.212 104.167 L 206.250 100.417 207.583 100.322 C 208.317 100.270,208.971 100.214,209.038 100.197 C 209.105 100.180,209.206 100.373,209.262 100.625 M264.482 101.042 C 265.360 104.672,268.892 113.883,269.679 114.595 C 270.233 115.096,270.049 115.167,268.190 115.167 L 266.379 115.167 266.268 114.292 C 266.207 113.810,265.909 112.667,265.605 111.750 L 265.052 110.083 262.789 110.037 C 260.740 109.995,260.517 110.019,260.440 110.287 C 260.155 111.269,259.667 113.931,259.667 114.497 L 259.667 115.167 258.167 115.167 C 256.785 115.167,256.376 115.033,256.855 114.737 C 257.126 114.569,258.082 112.439,258.656 110.723 C 259.795 107.322,261.182 102.800,261.522 101.386 C 261.740 100.477,261.902 100.364,263.089 100.291 C 263.636 100.257,264.125 100.216,264.177 100.198 C 264.228 100.181,264.366 100.560,264.482 101.042 M140.858 101.347 C 140.785 102.477,140.840 102.436,139.701 102.201 C 139.175 102.092,138.273 101.954,137.696 101.893 L 136.648 101.784 136.701 108.184 C 136.731 111.703,136.818 114.715,136.895 114.875 C 137.024 115.142,136.906 115.167,135.521 115.167 L 134.006 115.167 134.128 114.375 C 134.288 113.336,134.287 102.065,134.127 101.904 C 134.059 101.837,133.384 101.877,132.627 101.994 C 131.869 102.111,131.016 102.242,130.731 102.286 C 130.213 102.364,130.212 102.362,130.125 101.474 C 130.076 100.984,130.059 100.546,130.086 100.500 C 130.113 100.454,132.561 100.423,135.526 100.431 L 140.917 100.445 140.858 101.347 M167.167 100.470 C 167.167 101.055,166.600 102.176,166.356 102.075 C 166.206 102.013,165.015 101.923,163.708 101.875 L 161.333 101.787 161.333 104.331 L 161.333 106.875 163.750 106.803 C 166.399 106.723,166.377 106.714,165.906 107.703 L 165.645 108.250 163.489 108.195 L 161.333 108.140 161.333 110.903 L 161.333 113.667 163.542 113.665 C 164.958 113.663,166.079 113.574,166.667 113.417 C 167.904 113.084,167.877 113.073,167.752 113.875 C 167.531 115.297,168.003 115.167,163.062 115.167 L 158.646 115.167 158.781 114.375 C 158.957 113.347,158.958 102.323,158.782 101.296 L 158.648 100.509 161.115 100.458 C 162.473 100.430,164.390 100.390,165.375 100.370 C 166.360 100.350,167.167 100.395,167.167 100.470 M233.096 100.792 C 232.801 102.052,232.730 102.116,231.784 101.981 C 231.307 101.913,230.110 101.852,229.125 101.846 L 227.333 101.833 227.333 104.352 L 227.333 106.870 229.749 106.810 C 232.358 106.745,232.336 106.737,231.917 107.667 L 231.654 108.250 229.494 108.195 L 227.333 108.140 227.333 110.903 L 227.333 113.667 229.542 113.665 C 230.958 113.663,232.079 113.574,232.667 113.417 C 233.171 113.281,233.648 113.170,233.727 113.169 C 233.865 113.167,233.737 114.457,233.552 114.938 C 233.481 115.124,232.640 115.167,229.069 115.167 L 224.673 115.167 224.795 114.375 C 224.953 113.347,224.954 102.323,224.795 101.296 L 224.674 100.509 227.129 100.458 C 228.479 100.430,230.398 100.390,231.393 100.370 L 233.203 100.333 233.096 100.792 M145.592 100.875 C 145.530 101.081,145.436 102.469,145.383 103.958 L 145.287 106.667 148.498 106.667 L 151.709 106.667 151.627 103.875 C 151.581 102.340,151.489 100.952,151.421 100.792 C 151.309 100.526,151.434 100.500,152.811 100.500 L 154.325 100.500 154.204 101.042 C 154.046 101.750,154.047 113.347,154.205 114.375 L 154.327 115.167 152.812 115.167 C 151.433 115.167,151.309 115.141,151.424 114.875 C 151.493 114.715,151.585 113.140,151.628 111.375 L 151.706 108.167 148.498 108.167 L 145.290 108.167 145.381 111.292 C 145.432 113.010,145.525 114.585,145.589 114.792 C 145.704 115.162,145.685 115.167,144.179 115.167 L 142.652 115.167 142.784 114.542 C 142.950 113.760,142.960 101.779,142.796 101.042 L 142.675 100.500 144.190 100.500 C 145.684 100.500,145.704 100.505,145.592 100.875 M182.667 100.835 C 184.773 101.635,185.762 103.602,185.158 105.793 C 184.508 108.153,182.642 109.333,179.560 109.333 L 177.965 109.333 178.038 111.958 C 178.077 113.402,178.168 114.715,178.240 114.875 C 178.358 115.141,178.234 115.167,176.829 115.167 L 175.288 115.167 175.435 114.375 C 175.626 113.345,175.628 102.328,175.437 101.274 L 175.290 100.465 178.687 100.540 C 180.938 100.589,182.280 100.689,182.667 100.835 M195.667 100.949 C 199.013 102.469,198.243 107.309,194.487 108.361 L 193.692 108.583 195.356 110.667 C 197.209 112.987,198.355 114.220,199.042 114.631 C 199.793 115.080,199.587 115.167,197.766 115.167 L 196.033 115.167 193.667 111.833 C 192.365 110.000,191.187 108.500,191.048 108.500 C 190.783 108.500,190.817 113.626,191.090 114.708 L 191.206 115.167 189.690 115.167 L 188.175 115.167 188.296 114.625 C 188.362 114.327,188.417 111.020,188.417 107.275 L 188.417 100.467 191.667 100.537 C 194.488 100.599,195.016 100.653,195.667 100.949 M245.167 100.895 C 247.846 101.902,249.037 103.849,249.056 107.250 C 249.079 111.452,247.643 113.808,244.417 114.860 C 243.954 115.011,242.654 115.078,240.167 115.080 L 236.583 115.083 236.667 114.667 C 236.805 113.975,236.760 101.453,236.617 100.941 L 236.485 100.465 240.451 100.539 C 243.636 100.599,244.564 100.669,245.167 100.895 M255.046 101.625 C 254.975 102.244,254.917 105.037,254.917 107.833 C 254.917 110.629,254.975 113.423,255.046 114.042 L 255.176 115.167 253.796 115.167 L 252.417 115.167 252.417 107.833 L 252.417 100.500 253.796 100.500 L 255.176 100.500 255.046 101.625 M178.000 104.897 C 178.000 108.579,177.885 108.326,179.572 108.331 C 181.771 108.337,183.097 106.524,182.749 103.990 C 182.526 102.371,181.485 101.667,179.313 101.667 L 178.000 101.667 178.000 104.897 M190.907 101.882 C 190.862 102.000,190.845 103.294,190.871 104.757 L 190.917 107.417 192.167 107.413 C 194.510 107.408,195.434 106.451,195.305 104.165 C 195.197 102.258,194.504 101.703,192.203 101.679 C 191.356 101.670,190.965 101.732,190.907 101.882 M239.206 107.601 L 239.250 113.417 240.417 113.552 C 241.670 113.697,244.201 113.462,244.922 113.134 C 245.975 112.654,246.564 110.825,246.574 108.000 C 246.591 103.398,245.417 102.055,241.221 101.874 L 239.162 101.785 239.206 107.601 M262.603 102.708 C 262.360 103.399,262.264 103.708,261.568 106.070 C 261.165 107.438,260.862 108.584,260.895 108.617 C 260.929 108.651,261.778 108.657,262.782 108.631 L 264.608 108.583 264.161 107.167 C 263.915 106.388,263.547 105.188,263.344 104.500 C 262.714 102.366,262.719 102.378,262.603 102.708 M148.606 120.085 C 148.552 120.224,148.596 120.528,148.702 120.761 L 148.895 121.185 149.107 120.801 C 149.223 120.590,149.279 120.285,149.231 120.125 C 149.164 119.900,149.242 119.833,149.572 119.833 C 150.105 119.833,150.105 119.827,149.500 120.724 C 148.949 121.541,148.819 122.500,149.260 122.500 C 149.403 122.500,149.473 122.575,149.417 122.667 C 149.360 122.758,149.098 122.833,148.833 122.833 C 148.569 122.833,148.307 122.758,148.250 122.667 C 148.193 122.575,148.226 122.500,148.323 122.500 C 148.799 122.500,148.176 120.423,147.632 120.194 C 147.285 120.048,147.564 119.833,148.101 119.833 C 148.569 119.833,148.681 119.889,148.606 120.085 M154.430 120.219 C 154.790 120.529,154.879 120.750,154.879 121.333 C 154.879 122.724,153.464 123.323,152.487 122.346 C 151.162 121.021,153.010 118.998,154.430 120.219 M158.333 120.000 C 158.333 120.092,158.258 120.167,158.167 120.167 C 157.896 120.167,157.962 122.094,158.241 122.326 C 158.918 122.888,159.250 122.493,159.250 121.125 C 159.250 119.854,159.257 119.833,159.672 119.833 C 160.084 119.833,160.191 120.849,159.950 122.472 C 159.909 122.749,158.250 122.889,157.808 122.653 C 157.554 122.517,157.500 122.286,157.500 121.327 C 157.500 120.622,157.431 120.167,157.323 120.167 C 157.226 120.167,157.193 120.092,157.250 120.000 C 157.307 119.908,157.574 119.833,157.843 119.833 C 158.113 119.833,158.333 119.908,158.333 120.000 M164.362 120.109 C 164.704 120.419,164.757 120.843,164.486 121.114 C 164.308 121.292,164.327 121.360,164.807 122.289 C 165.074 122.806,165.054 122.864,164.625 122.803 C 164.338 122.762,164.230 122.613,164.167 122.167 C 164.101 121.708,163.998 121.571,163.684 121.527 C 163.308 121.474,163.291 121.508,163.377 122.152 C 163.466 122.814,163.455 122.833,162.984 122.833 C 162.718 122.833,162.500 122.758,162.500 122.667 C 162.500 122.575,162.585 122.500,162.689 122.500 C 162.891 122.500,162.809 120.684,162.583 120.125 C 162.417 119.717,163.914 119.704,164.362 120.109 M171.969 120.382 C 172.031 120.910,171.748 120.994,171.615 120.487 C 171.550 120.238,171.415 120.156,171.139 120.195 C 170.511 120.284,170.561 120.785,171.226 121.062 C 172.642 121.654,172.081 123.141,170.583 122.765 C 170.168 122.661,169.946 121.833,170.333 121.833 C 170.425 121.833,170.500 121.983,170.500 122.167 C 170.500 122.426,170.611 122.500,171.000 122.500 C 171.275 122.500,171.500 122.425,171.500 122.333 C 171.500 122.242,171.509 122.110,171.520 122.042 C 171.531 121.973,171.250 121.766,170.895 121.583 C 169.703 120.966,170.016 119.749,171.333 119.875 C 171.826 119.922,171.925 120.001,171.969 120.382 M176.987 120.208 C 176.980 120.415,176.936 120.490,176.890 120.375 C 176.568 119.577,176.000 120.188,176.000 121.333 C 176.000 122.043,176.069 122.500,176.177 122.500 C 176.274 122.500,176.307 122.575,176.250 122.667 C 176.193 122.758,175.889 122.833,175.573 122.833 C 175.258 122.833,175.000 122.758,175.000 122.667 C 175.000 122.575,175.075 122.500,175.167 122.500 C 175.262 122.500,175.333 122.000,175.333 121.333 C 175.333 120.200,175.321 120.167,174.917 120.167 C 174.688 120.167,174.500 120.242,174.500 120.333 C 174.500 120.425,174.425 120.500,174.333 120.500 C 174.242 120.500,174.167 120.350,174.167 120.167 C 174.167 119.859,174.278 119.833,175.583 119.833 C 176.945 119.833,176.999 119.848,176.987 120.208 M181.478 120.226 C 182.858 121.696,180.911 123.770,179.487 122.346 C 178.942 121.801,178.882 121.378,179.250 120.667 C 179.723 119.752,180.827 119.533,181.478 120.226 M186.251 120.167 C 186.507 120.451,186.522 120.569,186.352 120.943 C 186.212 121.250,186.204 121.437,186.325 121.559 C 186.421 121.655,186.500 121.906,186.500 122.117 C 186.500 122.328,186.575 122.500,186.667 122.500 C 186.758 122.500,186.833 122.580,186.833 122.678 C 186.833 123.133,186.082 122.734,186.027 122.251 C 185.966 121.717,185.760 121.507,185.292 121.503 C 184.971 121.500,184.870 122.233,185.167 122.417 C 185.485 122.614,185.331 122.833,184.874 122.833 L 184.414 122.833 184.475 121.500 C 184.517 120.562,184.478 120.167,184.341 120.167 C 184.234 120.167,184.193 120.092,184.250 120.000 C 184.447 119.681,185.923 119.805,186.251 120.167 M189.768 120.095 C 189.713 120.240,189.752 120.516,189.856 120.709 C 190.092 121.150,190.570 120.651,190.406 120.134 C 190.331 119.898,190.402 119.833,190.739 119.833 C 191.266 119.833,191.267 119.870,190.750 120.631 C 190.330 121.249,190.162 122.500,190.500 122.500 C 190.592 122.500,190.667 122.575,190.667 122.667 C 190.667 122.758,190.404 122.833,190.083 122.833 C 189.522 122.833,189.320 122.631,189.667 122.417 C 189.959 122.236,189.847 121.705,189.333 120.833 C 188.721 119.795,188.720 119.833,189.351 119.833 C 189.754 119.833,189.847 119.892,189.768 120.095 M201.076 119.937 C 201.441 120.077,201.833 120.873,201.833 121.473 C 201.833 122.607,200.386 123.235,199.458 122.504 C 198.141 121.465,199.488 119.327,201.076 119.937 M205.167 120.000 C 205.167 120.092,205.092 120.167,205.000 120.167 C 204.780 120.167,204.785 121.765,205.006 122.178 C 205.180 122.502,205.582 122.586,206.070 122.399 C 206.373 122.283,206.465 120.167,206.167 120.167 C 206.075 120.167,206.000 120.092,206.000 120.000 C 206.000 119.908,206.233 119.833,206.518 119.833 C 206.922 119.833,207.013 119.891,206.934 120.097 C 206.879 120.242,206.833 120.898,206.833 121.555 L 206.833 122.750 205.840 122.787 C 204.547 122.835,204.333 122.629,204.333 121.335 C 204.333 120.799,204.288 120.242,204.232 120.097 C 204.153 119.891,204.245 119.833,204.649 119.833 C 204.934 119.833,205.167 119.908,205.167 120.000 M211.178 120.006 C 211.536 120.198,211.607 120.827,211.304 121.129 C 211.154 121.280,211.173 121.398,211.387 121.634 C 211.541 121.804,211.667 122.068,211.667 122.221 C 211.667 122.375,211.742 122.500,211.833 122.500 C 211.925 122.500,212.000 122.575,212.000 122.667 C 212.000 122.758,211.813 122.833,211.583 122.833 C 211.273 122.833,211.167 122.745,211.167 122.489 C 211.167 121.957,210.856 121.500,210.494 121.500 C 210.241 121.500,210.167 121.614,210.167 122.000 C 210.167 122.275,210.242 122.500,210.333 122.500 C 210.425 122.500,210.500 122.575,210.500 122.667 C 210.500 122.758,210.279 122.833,210.010 122.833 C 209.740 122.833,209.473 122.758,209.417 122.667 C 209.360 122.575,209.393 122.500,209.490 122.500 C 209.598 122.500,209.667 122.043,209.667 121.333 C 209.667 120.667,209.595 120.167,209.500 120.167 C 209.408 120.167,209.333 120.092,209.333 120.000 C 209.333 119.780,210.765 119.785,211.178 120.006 M218.833 120.366 C 218.833 120.911,218.580 120.991,218.448 120.487 C 218.337 120.060,217.615 120.100,217.532 120.538 C 217.493 120.743,217.675 120.906,218.157 121.099 C 218.967 121.423,219.206 121.996,218.744 122.507 C 218.196 123.113,217.000 122.857,217.000 122.133 C 217.000 121.722,217.274 121.754,217.385 122.179 C 217.454 122.444,217.584 122.512,217.946 122.471 C 218.613 122.394,218.539 121.982,217.786 121.584 C 216.606 120.959,216.886 119.784,218.197 119.861 C 218.774 119.895,218.833 119.942,218.833 120.366 M224.000 120.167 C 224.000 120.350,223.925 120.500,223.833 120.500 C 223.742 120.500,223.667 120.425,223.667 120.333 C 223.667 120.242,223.479 120.167,223.250 120.167 C 222.845 120.167,222.833 120.200,222.833 121.333 C 222.833 122.000,222.905 122.500,223.000 122.500 C 223.092 122.500,223.167 122.575,223.167 122.667 C 223.167 122.758,222.867 122.833,222.500 122.833 C 222.133 122.833,221.833 122.758,221.833 122.667 C 221.833 122.575,221.908 122.500,222.000 122.500 C 222.095 122.500,222.167 122.000,222.167 121.333 C 222.167 120.188,221.599 119.577,221.277 120.375 C 221.231 120.490,221.187 120.415,221.180 120.208 C 221.167 119.848,221.221 119.833,222.583 119.833 C 223.889 119.833,224.000 119.859,224.000 120.167 M228.071 120.095 C 228.370 120.393,228.413 120.854,228.166 121.101 C 228.054 121.213,228.109 121.497,228.333 121.959 C 228.741 122.804,228.742 122.833,228.363 122.833 C 228.150 122.833,228.012 122.646,227.904 122.208 C 227.695 121.360,227.000 121.191,227.000 121.988 C 227.000 122.270,227.079 122.500,227.177 122.500 C 227.274 122.500,227.307 122.575,227.250 122.667 C 227.193 122.758,226.926 122.833,226.657 122.833 C 226.387 122.833,226.167 122.758,226.167 122.667 C 226.167 122.575,226.242 122.500,226.333 122.500 C 226.429 122.500,226.500 122.000,226.500 121.333 C 226.500 120.667,226.429 120.167,226.333 120.167 C 226.242 120.167,226.167 120.092,226.167 120.000 C 226.167 119.721,227.778 119.802,228.071 120.095 M232.586 120.208 C 232.846 121.109,233.426 122.500,233.541 122.500 C 233.610 122.500,233.667 122.575,233.667 122.667 C 233.667 122.758,233.404 122.833,233.083 122.833 C 232.530 122.833,232.282 122.600,232.691 122.464 C 233.041 122.347,232.528 121.667,232.089 121.667 C 231.657 121.667,231.420 122.097,231.597 122.560 C 231.679 122.772,231.601 122.833,231.254 122.833 C 231.007 122.833,230.833 122.777,230.866 122.708 C 231.208 122.002,231.894 120.505,232.011 120.208 C 232.092 120.002,232.230 119.833,232.318 119.833 C 232.406 119.833,232.526 120.002,232.586 120.208 M238.167 120.167 C 238.167 120.350,238.092 120.500,238.000 120.500 C 237.908 120.500,237.833 120.425,237.833 120.333 C 237.833 120.242,237.646 120.167,237.417 120.167 C 237.012 120.167,237.000 120.200,237.000 121.333 C 237.000 122.000,237.071 122.500,237.167 122.500 C 237.258 122.500,237.333 122.575,237.333 122.667 C 237.333 122.758,237.071 122.833,236.750 122.833 C 236.429 122.833,236.167 122.758,236.167 122.667 C 236.167 122.575,236.242 122.500,236.333 122.500 C 236.429 122.500,236.500 122.000,236.500 121.333 C 236.500 120.200,236.488 120.167,236.083 120.167 C 235.854 120.167,235.667 120.242,235.667 120.333 C 235.667 120.425,235.592 120.500,235.500 120.500 C 235.408 120.500,235.333 120.350,235.333 120.167 C 235.333 119.859,235.444 119.833,236.750 119.833 C 238.056 119.833,238.167 119.859,238.167 120.167 M242.500 120.167 C 242.500 120.350,242.425 120.500,242.333 120.500 C 242.242 120.500,242.167 120.425,242.167 120.333 C 242.167 120.242,241.942 120.167,241.667 120.167 C 241.222 120.167,241.167 120.222,241.167 120.667 C 241.167 121.196,241.868 121.426,242.056 120.958 C 242.103 120.844,242.140 121.013,242.140 121.333 C 242.140 121.654,242.103 121.823,242.056 121.708 C 241.868 121.241,241.167 121.471,241.167 122.000 C 241.167 122.460,241.213 122.500,241.750 122.500 C 242.157 122.500,242.333 122.425,242.333 122.250 C 242.333 122.112,242.408 122.000,242.500 122.000 C 242.592 122.000,242.667 122.188,242.667 122.417 C 242.667 122.821,242.633 122.833,241.500 122.833 C 240.833 122.833,240.333 122.762,240.333 122.667 C 240.333 122.575,240.408 122.500,240.500 122.500 C 240.595 122.500,240.667 122.000,240.667 121.333 C 240.667 120.667,240.595 120.167,240.500 120.167 C 240.408 120.167,240.333 120.092,240.333 120.000 C 240.333 119.906,240.806 119.833,241.417 119.833 C 242.389 119.833,242.500 119.868,242.500 120.167 M247.636 120.375 C 247.665 120.627,247.609 120.833,247.511 120.833 C 247.413 120.833,247.333 120.729,247.333 120.601 C 247.333 120.062,246.126 120.013,245.759 120.537 C 245.162 121.390,245.634 122.500,246.593 122.500 C 247.224 122.500,247.447 121.931,246.875 121.782 C 246.715 121.740,246.858 121.697,247.193 121.686 C 247.857 121.665,247.947 122.159,247.364 122.625 C 246.278 123.493,244.469 122.115,245.003 120.827 C 245.460 119.722,247.520 119.369,247.636 120.375 M251.167 120.000 C 251.167 120.092,251.093 120.167,251.004 120.167 C 250.904 120.167,250.915 120.330,251.030 120.583 C 251.316 121.210,251.835 120.785,251.692 120.042 C 251.669 119.919,251.827 119.833,252.076 119.833 C 252.309 119.833,252.500 119.908,252.500 120.000 C 252.500 120.092,252.427 120.167,252.337 120.167 C 252.247 120.167,252.022 120.464,251.837 120.827 C 251.483 121.521,251.383 122.500,251.667 122.500 C 251.758 122.500,251.833 122.575,251.833 122.667 C 251.833 122.758,251.571 122.833,251.250 122.833 C 250.929 122.833,250.667 122.758,250.667 122.667 C 250.667 122.575,250.742 122.500,250.833 122.500 C 251.258 122.500,250.689 120.573,250.169 120.251 C 249.820 120.036,250.020 119.833,250.583 119.833 C 250.904 119.833,251.167 119.908,251.167 120.000 M152.839 120.489 C 152.376 121.355,152.752 122.500,153.500 122.500 C 154.063 122.500,154.333 122.121,154.333 121.333 C 154.333 120.545,154.063 120.167,153.500 120.167 C 153.188 120.167,152.950 120.283,152.839 120.489 M163.333 120.750 C 163.333 121.151,163.410 121.333,163.577 121.333 C 163.931 121.333,164.173 120.803,163.978 120.454 C 163.693 119.945,163.333 120.111,163.333 120.750 M179.873 120.498 C 179.358 121.323,179.735 122.500,180.514 122.500 C 181.239 122.500,181.620 121.609,181.261 120.750 C 180.973 120.061,180.231 119.926,179.873 120.498 M185.000 120.750 C 185.000 121.284,185.045 121.350,185.375 121.303 C 185.669 121.262,185.750 121.142,185.750 120.750 C 185.750 120.358,185.669 120.238,185.375 120.197 C 185.045 120.150,185.000 120.216,185.000 120.750 M199.759 120.537 C 199.233 121.289,199.631 122.500,200.406 122.500 C 200.943 122.500,201.212 122.110,201.212 121.333 C 201.212 120.214,200.326 119.728,199.759 120.537 M210.167 120.750 C 210.167 121.355,210.423 121.510,210.800 121.133 C 211.082 120.851,211.048 120.388,210.736 120.268 C 210.257 120.084,210.167 120.161,210.167 120.750 M227.000 120.750 C 227.000 121.418,227.372 121.551,227.672 120.989 C 227.809 120.734,227.805 120.584,227.658 120.406 C 227.297 119.971,227.000 120.127,227.000 120.750 M231.951 121.002 C 231.895 121.217,231.947 121.333,232.099 121.333 C 232.356 121.333,232.421 120.907,232.186 120.762 C 232.104 120.711,231.999 120.820,231.951 121.002 M193.748 122.497 C 193.863 122.682,193.557 123.333,193.355 123.333 C 193.282 123.333,193.222 123.108,193.222 122.833 C 193.222 122.348,193.533 122.149,193.748 122.497 " stroke="none" fill="#dbc3ab" fill-rule="evenodd"></path><path id="path2" d="M213.958 42.023 C 214.161 42.278,213.971 42.963,212.901 45.833 C 212.781 46.154,212.389 47.242,212.029 48.250 C 211.670 49.258,211.182 50.590,210.945 51.208 L 210.515 52.333 210.966 52.331 C 216.439 52.299,218.724 45.249,214.272 42.129 C 213.985 41.927,213.843 41.880,213.958 42.023 M205.539 46.667 C 205.539 46.987,205.573 47.119,205.615 46.958 C 205.657 46.798,205.657 46.535,205.615 46.375 C 205.573 46.215,205.539 46.346,205.539 46.667 M205.127 53.951 C 205.334 53.991,205.634 53.990,205.794 53.948 C 205.953 53.906,205.783 53.874,205.417 53.875 C 205.050 53.877,204.920 53.911,205.127 53.951 M213.017 55.729 C 211.192 58.014,211.144 58.029,209.987 56.625 C 208.970 55.390,208.722 55.130,208.997 55.588 C 209.200 55.924,208.984 56.775,208.111 59.086 C 207.973 59.451,207.512 60.725,207.086 61.917 C 206.661 63.108,206.249 64.233,206.171 64.417 C 206.093 64.600,205.857 65.275,205.645 65.917 C 205.433 66.558,205.134 67.316,204.980 67.600 C 204.717 68.086,204.719 68.288,205.009 70.934 C 205.179 72.483,205.586 76.225,205.913 79.250 C 206.481 84.496,206.938 88.674,207.362 92.500 C 207.696 95.511,207.980 95.730,211.438 95.641 C 214.701 95.556,214.574 95.739,215.159 90.292 C 215.255 89.398,215.409 87.973,215.502 87.125 C 215.595 86.277,215.859 83.858,216.089 81.750 C 216.319 79.642,216.581 77.370,216.670 76.702 C 216.760 76.033,216.833 75.199,216.833 74.847 C 216.833 74.300,216.903 74.178,217.310 74.010 C 218.606 73.473,219.392 72.126,219.659 69.982 C 219.755 69.213,220.025 67.121,220.258 65.333 C 220.491 63.546,220.756 61.448,220.847 60.672 C 220.938 59.896,221.054 59.091,221.107 58.883 C 221.691 56.553,219.188 54.018,216.157 53.870 L 214.563 53.792 213.017 55.729 M202.324 55.625 L 201.750 56.250 202.375 55.676 C 202.719 55.360,203.000 55.078,203.000 55.051 C 203.000 54.923,202.859 55.043,202.324 55.625 M199.740 58.042 L 199.250 58.583 199.792 58.094 C 200.297 57.638,200.410 57.500,200.281 57.500 C 200.252 57.500,200.009 57.744,199.740 58.042 M203.240 62.042 L 202.750 62.583 203.292 62.094 C 203.590 61.825,203.833 61.581,203.833 61.552 C 203.833 61.423,203.696 61.537,203.240 62.042 M195.833 63.917 C 196.331 64.421,196.776 64.833,196.822 64.833 C 196.868 64.833,196.498 64.421,196.000 63.917 C 195.502 63.413,195.057 63.000,195.011 63.000 C 194.966 63.000,195.335 63.413,195.833 63.917 M204.205 63.500 C 204.205 63.821,204.240 63.952,204.282 63.792 C 204.323 63.631,204.323 63.369,204.282 63.208 C 204.240 63.048,204.205 63.179,204.205 63.500 M200.909 64.208 L 200.250 64.917 200.958 64.258 C 201.348 63.895,201.667 63.577,201.667 63.550 C 201.667 63.423,201.522 63.550,200.909 64.208 M204.539 66.500 C 204.539 66.821,204.573 66.952,204.615 66.792 C 204.657 66.631,204.657 66.369,204.615 66.208 C 204.573 66.048,204.539 66.179,204.539 66.500 M162.455 101.787 C 162.750 101.824,163.275 101.824,163.621 101.788 C 163.967 101.752,163.725 101.722,163.083 101.721 C 162.442 101.721,162.159 101.750,162.455 101.787 M228.455 101.787 C 228.750 101.824,229.275 101.824,229.621 101.788 C 229.967 101.752,229.725 101.722,229.083 101.721 C 228.442 101.721,228.159 101.750,228.455 101.787 M143.072 107.833 C 143.072 110.079,143.096 110.998,143.125 109.875 C 143.153 108.752,143.153 106.915,143.125 105.792 C 143.096 104.669,143.072 105.587,143.072 107.833 M185.205 104.500 C 185.205 104.821,185.240 104.952,185.282 104.792 C 185.323 104.631,185.323 104.369,185.282 104.208 C 185.240 104.048,185.205 104.179,185.205 104.500 M238.958 115.121 C 239.256 115.158,239.744 115.158,240.042 115.121 C 240.340 115.084,240.096 115.053,239.500 115.053 C 238.904 115.053,238.660 115.084,238.958 115.121 M237.879 120.170 C 237.865 120.356,237.924 120.464,238.010 120.410 C 238.200 120.293,238.220 119.833,238.035 119.833 C 237.963 119.833,237.893 119.985,237.879 120.170 M204.331 121.049 L 204.412 122.083 204.466 121.185 C 204.495 120.690,204.459 120.225,204.385 120.151 C 204.311 120.076,204.286 120.481,204.331 121.049 M222.717 121.167 C 222.717 121.671,222.748 121.877,222.786 121.625 C 222.824 121.373,222.824 120.960,222.786 120.708 C 222.748 120.456,222.717 120.662,222.717 121.167 M157.872 121.500 C 157.872 121.821,157.906 121.952,157.948 121.792 C 157.990 121.631,157.990 121.369,157.948 121.208 C 157.906 121.048,157.872 121.179,157.872 121.500 M175.375 121.917 C 175.377 122.283,175.411 122.414,175.451 122.206 C 175.491 121.999,175.490 121.699,175.448 121.540 C 175.406 121.380,175.374 121.550,175.375 121.917 " stroke="none" fill="#000000" fill-rule="evenodd"></path><path id="path3" d="M209.582 41.503 C 209.524 41.596,209.408 41.629,209.324 41.577 C 209.239 41.525,209.210 41.586,209.259 41.713 C 209.307 41.839,209.260 42.162,209.154 42.430 C 208.892 43.090,207.717 46.368,207.337 47.500 C 207.168 48.004,206.905 48.709,206.752 49.066 C 206.487 49.687,206.489 49.730,206.800 50.040 C 207.122 50.362,207.127 50.359,207.379 49.641 C 207.519 49.243,207.986 47.942,208.417 46.750 C 209.483 43.802,210.330 41.425,210.332 41.375 C 210.337 41.247,209.669 41.361,209.582 41.503 M204.743 54.625 C 204.599 54.969,204.303 55.775,204.085 56.417 C 203.867 57.058,203.493 58.108,203.253 58.750 C 201.535 63.363,201.488 63.539,202.154 62.917 C 202.744 62.366,202.963 61.947,203.504 60.333 C 203.704 59.737,203.931 59.100,204.008 58.917 C 204.085 58.733,204.335 58.058,204.564 57.417 C 204.793 56.775,205.135 55.839,205.324 55.336 C 205.868 53.884,205.329 53.224,204.743 54.625 M177.211 100.620 C 177.464 100.658,177.839 100.657,178.044 100.617 C 178.249 100.578,178.042 100.546,177.583 100.548 C 177.125 100.549,176.957 100.581,177.211 100.620 M190.125 100.618 C 190.331 100.657,190.669 100.657,190.875 100.618 C 191.081 100.578,190.912 100.545,190.500 100.545 C 190.088 100.545,189.919 100.578,190.125 100.618 M220.052 102.083 C 220.053 102.633,220.084 102.838,220.121 102.539 C 220.158 102.239,220.157 101.789,220.119 101.539 C 220.081 101.288,220.051 101.533,220.052 102.083 M179.125 101.618 C 179.331 101.657,179.669 101.657,179.875 101.618 C 180.081 101.578,179.912 101.545,179.500 101.545 C 179.088 101.545,178.919 101.578,179.125 101.618 M192.042 101.615 C 192.202 101.657,192.465 101.657,192.625 101.615 C 192.785 101.573,192.654 101.539,192.333 101.539 C 192.012 101.539,191.881 101.573,192.042 101.615 M161.235 101.896 C 161.186 102.022,161.175 102.491,161.210 102.938 L 161.273 103.750 161.303 102.806 C 161.322 102.231,161.415 101.828,161.542 101.777 C 161.705 101.711,161.704 101.690,161.536 101.680 C 161.419 101.673,161.283 101.770,161.235 101.896 M227.240 105.070 C 227.248 106.540,227.298 106.903,227.500 106.957 C 227.679 107.006,227.692 106.984,227.548 106.882 C 227.418 106.790,227.325 106.111,227.288 104.994 L 227.231 103.250 227.240 105.070 M175.739 108.000 C 175.739 110.429,175.763 111.423,175.791 110.208 C 175.820 108.994,175.820 107.006,175.791 105.792 C 175.763 104.577,175.739 105.571,175.739 108.000 M159.072 107.833 C 159.072 110.079,159.096 110.998,159.125 109.875 C 159.153 108.752,159.153 106.915,159.125 105.792 C 159.096 104.669,159.072 105.587,159.072 107.833 M153.905 107.833 C 153.905 109.987,153.929 110.869,153.958 109.792 C 153.987 108.715,153.987 106.952,153.958 105.875 C 153.929 104.798,153.905 105.679,153.905 107.833 M254.737 107.917 C 254.737 109.842,254.762 110.606,254.791 109.616 C 254.821 108.626,254.821 107.051,254.791 106.116 C 254.761 105.181,254.737 105.992,254.737 107.917 M150.794 108.118 C 151.001 108.158,151.301 108.156,151.460 108.115 C 151.620 108.073,151.450 108.040,151.083 108.042 C 150.717 108.044,150.586 108.078,150.794 108.118 M227.226 109.583 C 227.225 110.408,227.254 110.767,227.288 110.380 C 227.323 109.993,227.324 109.318,227.289 108.880 C 227.255 108.442,227.226 108.758,227.226 109.583 M218.387 111.333 C 218.387 111.929,218.417 112.173,218.454 111.875 C 218.491 111.577,218.491 111.090,218.454 110.792 C 218.417 110.494,218.387 110.737,218.387 111.333 M161.218 111.917 C 161.219 112.467,161.250 112.672,161.287 112.372 C 161.325 112.072,161.324 111.622,161.286 111.372 C 161.248 111.122,161.217 111.367,161.218 111.917 M207.552 112.250 C 207.553 112.800,207.584 113.005,207.621 112.705 C 207.658 112.406,207.657 111.956,207.619 111.705 C 207.581 111.455,207.551 111.700,207.552 112.250 M259.519 114.535 C 259.500 114.983,259.490 114.987,258.125 115.043 L 256.750 115.099 258.130 115.133 C 259.580 115.168,259.792 115.062,259.617 114.385 C 259.565 114.185,259.532 114.235,259.519 114.535 M266.376 114.833 C 266.430 115.034,266.784 115.085,268.180 115.093 L 269.917 115.103 268.256 115.045 C 267.207 115.008,266.542 114.913,266.451 114.785 C 266.349 114.641,266.327 114.655,266.376 114.833 M158.811 115.045 C 158.882 115.115,160.847 115.152,163.178 115.128 L 167.417 115.083 163.050 115.000 C 160.648 114.954,158.741 114.974,158.811 115.045 M189.667 115.000 L 188.250 115.105 189.615 115.136 C 190.381 115.153,191.026 115.093,191.083 115.000 C 191.140 114.908,191.163 114.847,191.135 114.864 C 191.107 114.881,190.446 114.942,189.667 115.000 M195.981 115.048 C 196.053 115.120,196.856 115.157,197.765 115.130 L 199.417 115.081 197.633 114.999 C 196.651 114.954,195.908 114.976,195.981 115.048 M134.796 115.122 C 135.188 115.157,135.788 115.157,136.129 115.121 C 136.471 115.085,136.150 115.057,135.417 115.057 C 134.683 115.058,134.404 115.087,134.796 115.122 M143.458 115.122 C 143.848 115.157,144.485 115.157,144.875 115.122 C 145.265 115.087,144.946 115.058,144.167 115.058 C 143.387 115.058,143.069 115.087,143.458 115.122 M152.296 115.122 C 152.688 115.157,153.288 115.157,153.629 115.121 C 153.971 115.085,153.650 115.057,152.917 115.057 C 152.183 115.058,151.904 115.087,152.296 115.122 M176.047 115.123 C 176.485 115.157,177.160 115.157,177.547 115.122 C 177.934 115.087,177.575 115.059,176.750 115.059 C 175.925 115.060,175.609 115.088,176.047 115.123 M206.128 115.121 C 206.428 115.158,206.878 115.157,207.128 115.119 C 207.378 115.081,207.133 115.051,206.583 115.052 C 206.033 115.053,205.828 115.084,206.128 115.121 M219.129 115.122 C 219.521 115.157,220.121 115.157,220.463 115.121 C 220.804 115.085,220.483 115.057,219.750 115.057 C 219.017 115.058,218.737 115.087,219.129 115.122 M226.865 115.124 C 228.029 115.153,229.979 115.153,231.198 115.125 C 232.418 115.096,231.467 115.073,229.083 115.073 C 226.700 115.073,225.702 115.096,226.865 115.124 M252.958 115.122 C 253.348 115.157,253.985 115.157,254.375 115.122 C 254.765 115.087,254.446 115.058,253.667 115.058 C 252.887 115.058,252.569 115.087,252.958 115.122 M206.387 121.167 C 206.387 121.763,206.417 122.006,206.454 121.708 C 206.491 121.410,206.491 120.923,206.454 120.625 C 206.417 120.327,206.387 120.571,206.387 121.167 M206.709 120.917 C 206.711 121.283,206.745 121.414,206.785 121.206 C 206.824 120.999,206.823 120.699,206.781 120.540 C 206.739 120.380,206.707 120.550,206.709 120.917 M236.881 121.750 C 236.882 122.208,236.915 122.376,236.953 122.123 C 236.991 121.869,236.990 121.494,236.951 121.289 C 236.911 121.084,236.880 121.292,236.881 121.750 M251.400 121.234 C 251.350 121.363,251.336 121.719,251.368 122.026 C 251.419 122.515,251.436 122.486,251.506 121.792 C 251.588 120.980,251.558 120.822,251.400 121.234 M240.712 121.833 C 240.712 122.246,240.745 122.415,240.784 122.208 C 240.824 122.002,240.824 121.665,240.784 121.458 C 240.745 121.252,240.712 121.421,240.712 121.833 " stroke="none" fill="#000000" fill-rule="evenodd"></path><path id="path4" d="M214.500 42.219 C 214.500 42.248,214.744 42.491,215.042 42.760 L 215.583 43.250 215.094 42.708 C 214.638 42.203,214.500 42.090,214.500 42.219 M215.128 53.787 C 215.428 53.825,215.878 53.824,216.128 53.786 C 216.378 53.748,216.133 53.717,215.583 53.718 C 215.033 53.719,214.828 53.750,215.128 53.787 M201.158 56.625 L 200.583 57.250 201.208 56.676 C 201.552 56.360,201.833 56.078,201.833 56.051 C 201.833 55.923,201.692 56.043,201.158 56.625 M192.583 60.833 C 193.220 61.475,193.779 62.000,193.824 62.000 C 193.870 62.000,193.387 61.475,192.750 60.833 C 192.113 60.192,191.555 59.667,191.509 59.667 C 191.463 59.667,191.947 60.192,192.583 60.833 M201.906 63.375 L 201.417 63.917 201.958 63.427 C 202.256 63.158,202.500 62.914,202.500 62.885 C 202.500 62.757,202.362 62.870,201.906 63.375 M216.539 78.000 C 216.539 78.321,216.573 78.452,216.615 78.292 C 216.657 78.131,216.657 77.869,216.615 77.708 C 216.573 77.548,216.539 77.679,216.539 78.000 M215.039 91.667 C 215.039 91.987,215.073 92.119,215.115 91.958 C 215.157 91.798,215.157 91.535,215.115 91.375 C 215.073 91.215,215.039 91.346,215.039 91.667 M130.628 100.454 C 130.928 100.491,131.378 100.490,131.628 100.452 C 131.878 100.414,131.633 100.384,131.083 100.385 C 130.533 100.386,130.328 100.417,130.628 100.454 M139.830 100.453 C 140.332 100.490,140.806 100.609,140.884 100.718 C 140.983 100.857,141.005 100.841,140.958 100.667 C 140.908 100.483,140.630 100.413,139.903 100.401 L 138.917 100.385 139.830 100.453 M164.375 100.456 C 164.902 100.490,165.765 100.490,166.292 100.456 C 166.819 100.423,166.387 100.396,165.333 100.396 C 164.279 100.396,163.848 100.423,164.375 100.456 M230.375 100.456 C 230.902 100.490,231.765 100.490,232.292 100.456 C 232.819 100.423,232.387 100.396,231.333 100.396 C 230.279 100.396,229.848 100.423,230.375 100.456 M206.221 102.250 C 206.222 102.892,206.252 103.134,206.288 102.788 C 206.324 102.442,206.324 101.917,206.287 101.621 C 206.250 101.325,206.221 101.608,206.221 102.250 M188.574 107.833 C 188.574 110.629,188.597 111.773,188.625 110.375 C 188.653 108.977,188.653 106.690,188.625 105.292 C 188.597 103.894,188.574 105.037,188.574 107.833 M177.901 105.583 C 177.901 107.050,177.927 107.628,177.957 106.867 C 177.988 106.106,177.988 104.906,177.957 104.200 C 177.926 103.494,177.901 104.117,177.901 105.583 M197.717 104.167 C 197.717 104.671,197.748 104.877,197.786 104.625 C 197.824 104.373,197.824 103.960,197.786 103.708 C 197.748 103.456,197.717 103.662,197.717 104.167 M206.228 105.083 C 206.228 106.000,206.256 106.354,206.290 105.869 C 206.324 105.385,206.323 104.635,206.289 104.203 C 206.255 103.770,206.227 104.167,206.228 105.083 M236.905 107.833 C 236.905 109.987,236.929 110.869,236.958 109.792 C 236.987 108.715,236.987 106.952,236.958 105.875 C 236.929 104.798,236.905 105.679,236.905 107.833 M220.209 104.917 C 220.211 105.283,220.245 105.414,220.285 105.206 C 220.324 104.999,220.323 104.699,220.281 104.540 C 220.239 104.380,220.207 104.550,220.209 104.917 M146.875 106.791 C 147.769 106.821,149.231 106.821,150.125 106.791 C 151.019 106.761,150.287 106.736,148.500 106.736 C 146.712 106.736,145.981 106.761,146.875 106.791 M231.333 106.731 C 231.333 106.767,231.554 106.828,231.825 106.868 C 232.095 106.907,232.278 106.878,232.231 106.803 C 232.149 106.670,231.333 106.604,231.333 106.731 M218.209 107.750 C 218.211 108.117,218.245 108.247,218.285 108.040 C 218.324 107.832,218.323 107.532,218.281 107.373 C 218.239 107.214,218.207 107.383,218.209 107.750 M261.798 108.790 C 262.375 108.823,263.275 108.823,263.798 108.790 C 264.322 108.757,263.850 108.730,262.750 108.730 C 261.650 108.731,261.222 108.758,261.798 108.790 M177.905 109.387 C 177.859 109.508,177.845 110.352,177.875 111.262 L 177.930 112.917 177.965 111.139 C 177.989 109.900,178.063 109.336,178.208 109.277 C 178.372 109.211,178.370 109.190,178.203 109.180 C 178.086 109.173,177.952 109.266,177.905 109.387 M134.205 113.167 C 134.205 113.487,134.240 113.619,134.282 113.458 C 134.323 113.298,134.323 113.035,134.282 112.875 C 134.240 112.715,134.205 112.846,134.205 113.167 M197.333 113.219 C 197.333 113.248,197.577 113.491,197.875 113.760 L 198.417 114.250 197.927 113.708 C 197.471 113.203,197.333 113.090,197.333 113.219 M162.297 113.790 C 162.782 113.824,163.532 113.823,163.964 113.789 C 164.396 113.755,164.000 113.727,163.083 113.728 C 162.167 113.728,161.813 113.756,162.297 113.790 M228.297 113.790 C 228.782 113.824,229.532 113.823,229.964 113.789 C 230.396 113.755,230.000 113.727,229.083 113.728 C 228.167 113.728,227.813 113.756,228.297 113.790 M157.272 119.965 C 157.227 120.038,157.447 120.067,157.762 120.030 C 158.076 119.994,158.333 119.934,158.333 119.898 C 158.333 119.773,157.352 119.835,157.272 119.965 M159.375 119.948 C 159.535 119.990,159.798 119.990,159.958 119.948 C 160.119 119.906,159.987 119.872,159.667 119.872 C 159.346 119.872,159.215 119.906,159.375 119.948 M174.955 119.954 C 175.250 119.990,175.775 119.991,176.121 119.955 C 176.467 119.919,176.225 119.889,175.583 119.888 C 174.942 119.887,174.659 119.917,174.955 119.954 M184.269 119.970 C 184.222 120.045,184.405 120.074,184.675 120.034 C 184.946 119.995,185.167 119.933,185.167 119.898 C 185.167 119.771,184.351 119.836,184.269 119.970 M204.375 119.948 C 204.535 119.990,204.798 119.990,204.958 119.948 C 205.119 119.906,204.987 119.872,204.667 119.872 C 204.346 119.872,204.215 119.906,204.375 119.948 M206.208 119.948 C 206.369 119.990,206.631 119.990,206.792 119.948 C 206.952 119.906,206.821 119.872,206.500 119.872 C 206.179 119.872,206.048 119.906,206.208 119.948 M221.958 119.954 C 222.256 119.991,222.744 119.991,223.042 119.954 C 223.340 119.917,223.096 119.887,222.500 119.887 C 221.904 119.887,221.660 119.917,221.958 119.954 M236.125 119.954 C 236.423 119.991,236.910 119.991,237.208 119.954 C 237.506 119.917,237.262 119.887,236.667 119.887 C 236.071 119.887,235.827 119.917,236.125 119.954 M240.333 119.963 C 240.333 120.034,240.633 120.064,241.000 120.029 C 241.367 119.994,241.667 119.935,241.667 119.899 C 241.667 119.863,241.367 119.833,241.000 119.833 C 240.633 119.833,240.333 119.892,240.333 119.963 M159.388 121.250 C 159.389 121.892,159.419 122.134,159.455 121.788 C 159.491 121.442,159.490 120.917,159.454 120.621 C 159.417 120.325,159.387 120.608,159.388 121.250 M163.209 120.750 C 163.211 121.117,163.245 121.247,163.285 121.040 C 163.324 120.832,163.323 120.532,163.281 120.373 C 163.239 120.214,163.207 120.383,163.209 120.750 M175.889 121.333 C 175.889 122.021,175.919 122.302,175.955 121.958 C 175.991 121.615,175.991 121.052,175.955 120.708 C 175.919 120.365,175.889 120.646,175.889 121.333 M222.223 121.333 C 222.223 122.021,222.252 122.302,222.288 121.958 C 222.324 121.615,222.324 121.052,222.288 120.708 C 222.252 120.365,222.223 120.646,222.223 121.333 M226.872 120.667 C 226.872 120.987,226.906 121.119,226.948 120.958 C 226.990 120.798,226.990 120.535,226.948 120.375 C 226.906 120.215,226.872 120.346,226.872 120.667 M184.555 121.417 C 184.555 122.058,184.586 122.300,184.622 121.955 C 184.658 121.609,184.657 121.084,184.620 120.788 C 184.583 120.492,184.554 120.775,184.555 121.417 M159.885 121.750 C 159.886 122.300,159.917 122.505,159.954 122.205 C 159.991 121.906,159.990 121.456,159.952 121.205 C 159.914 120.955,159.884 121.200,159.885 121.750 " stroke="none" fill="#000000" fill-rule="evenodd"></path><path id="path5" d="M177.872 102.500 C 177.872 102.821,177.906 102.952,177.948 102.792 C 177.990 102.631,177.990 102.369,177.948 102.208 C 177.906 102.048,177.872 102.179,177.872 102.500 M136.573 107.667 C 136.573 110.096,136.596 111.090,136.625 109.875 C 136.653 108.660,136.653 106.673,136.625 105.458 C 136.596 104.244,136.573 105.237,136.573 107.667 M252.572 107.750 C 252.572 110.042,252.596 111.002,252.624 109.885 C 252.653 108.767,252.653 106.892,252.625 105.718 C 252.596 104.544,252.572 105.458,252.572 107.750 M151.726 105.417 C 151.725 106.242,151.754 106.600,151.788 106.213 C 151.823 105.827,151.824 105.152,151.789 104.713 C 151.755 104.275,151.726 104.592,151.726 105.417 M162.542 108.119 C 162.794 108.158,163.206 108.158,163.458 108.119 C 163.710 108.081,163.504 108.050,163.000 108.050 C 162.496 108.050,162.290 108.081,162.542 108.119 M228.542 108.119 C 228.794 108.158,229.206 108.158,229.458 108.119 C 229.710 108.081,229.504 108.050,229.000 108.050 C 228.496 108.050,228.290 108.081,228.542 108.119 M151.729 109.917 C 151.729 110.925,151.757 111.316,151.790 110.786 C 151.823 110.255,151.823 109.430,151.789 108.952 C 151.756 108.474,151.729 108.908,151.729 109.917 M237.128 115.121 C 237.428 115.158,237.878 115.157,238.128 115.119 C 238.378 115.081,238.133 115.051,237.583 115.052 C 237.033 115.053,236.828 115.084,237.128 115.121 M147.667 119.898 C 147.667 119.933,147.892 119.995,148.167 120.036 C 148.442 120.076,148.667 120.047,148.667 119.971 C 148.667 119.895,148.442 119.833,148.167 119.833 C 147.892 119.833,147.667 119.862,147.667 119.898 M189.042 119.948 C 189.202 119.990,189.465 119.990,189.625 119.948 C 189.785 119.906,189.654 119.872,189.333 119.872 C 189.012 119.872,188.881 119.906,189.042 119.948 M246.109 120.042 C 246.152 120.110,246.327 120.167,246.500 120.167 C 246.673 120.167,246.848 120.110,246.891 120.042 C 246.933 119.973,246.757 119.917,246.500 119.917 C 246.243 119.917,246.067 119.973,246.109 120.042 M250.208 119.948 C 250.369 119.990,250.631 119.990,250.792 119.948 C 250.952 119.906,250.821 119.872,250.500 119.872 C 250.179 119.872,250.048 119.906,250.208 119.948 M175.375 120.750 C 175.377 121.117,175.411 121.247,175.451 121.040 C 175.491 120.832,175.490 120.532,175.448 120.373 C 175.406 120.214,175.374 120.383,175.375 120.750 M190.205 121.833 C 190.205 122.154,190.240 122.285,190.282 122.125 C 190.323 121.965,190.323 121.702,190.282 121.542 C 190.240 121.381,190.205 121.513,190.205 121.833 M240.875 122.782 C 241.035 122.823,241.298 122.823,241.458 122.782 C 241.619 122.740,241.487 122.705,241.167 122.705 C 240.846 122.705,240.715 122.740,240.875 122.782 " stroke="none" fill="#000000" fill-rule="evenodd"></path><path id="path6" d="M210.533 41.302 C 210.413 41.382,210.065 42.153,209.758 43.015 C 209.451 43.878,208.848 45.558,208.417 46.750 C 207.986 47.942,207.522 49.235,207.384 49.625 C 207.234 50.052,207.059 50.296,206.943 50.238 C 206.837 50.186,207.050 50.410,207.417 50.736 C 208.173 51.409,209.141 51.904,210.008 52.062 L 210.599 52.169 210.984 51.126 C 211.196 50.553,211.665 49.258,212.026 48.250 C 212.388 47.242,212.781 46.154,212.901 45.833 C 213.715 43.651,214.148 42.271,214.063 42.133 C 213.748 41.623,211.013 40.979,210.533 41.302 M205.908 53.957 C 205.812 54.026,205.610 54.458,205.459 54.917 C 205.174 55.780,204.247 58.332,204.005 58.917 C 203.930 59.100,203.705 59.737,203.507 60.333 C 202.997 61.865,202.843 62.164,202.177 62.917 C 201.852 63.283,202.094 63.096,202.715 62.500 C 203.850 61.412,204.146 61.344,204.168 62.167 C 204.172 62.304,204.256 63.167,204.354 64.083 C 204.453 65.000,204.583 66.275,204.644 66.917 L 204.755 68.083 205.031 67.500 C 205.183 67.179,205.471 66.429,205.671 65.833 C 205.871 65.237,206.097 64.600,206.174 64.417 C 206.250 64.233,206.661 63.108,207.086 61.917 C 207.511 60.725,207.999 59.375,208.170 58.917 C 208.341 58.458,208.649 57.579,208.854 56.964 L 209.226 55.844 208.467 54.880 C 207.702 53.909,206.549 53.493,205.908 53.957 M161.228 105.250 C 161.228 106.167,161.256 106.520,161.290 106.036 C 161.324 105.552,161.323 104.802,161.289 104.369 C 161.255 103.937,161.227 104.333,161.228 105.250 M145.225 105.500 C 145.225 106.279,145.254 106.598,145.289 106.208 C 145.324 105.819,145.324 105.181,145.289 104.792 C 145.254 104.402,145.225 104.721,145.225 105.500 M225.070 107.833 C 225.070 109.712,225.095 110.481,225.124 109.542 C 225.154 108.602,225.154 107.065,225.124 106.125 C 225.095 105.185,225.070 105.954,225.070 107.833 M146.958 108.124 C 147.623 108.155,148.710 108.155,149.375 108.124 C 150.040 108.092,149.496 108.066,148.167 108.066 C 146.837 108.066,146.294 108.092,146.958 108.124 M161.237 108.223 C 161.190 108.346,161.177 109.040,161.209 109.765 L 161.266 111.083 161.300 109.639 C 161.322 108.666,161.401 108.167,161.542 108.110 C 161.705 108.045,161.704 108.023,161.536 108.013 C 161.419 108.006,161.284 108.100,161.237 108.223 M145.228 109.833 C 145.228 110.796,145.256 111.190,145.290 110.708 C 145.323 110.227,145.323 109.440,145.290 108.958 C 145.256 108.477,145.228 108.871,145.228 109.833 M207.550 110.500 C 207.550 111.004,207.581 111.210,207.619 110.958 C 207.658 110.706,207.658 110.294,207.619 110.042 C 207.581 109.790,207.550 109.996,207.550 110.500 M240.708 115.115 C 240.869 115.157,241.131 115.157,241.292 115.115 C 241.452 115.073,241.321 115.039,241.000 115.039 C 240.679 115.039,240.548 115.073,240.708 115.115 M235.642 120.042 C 235.726 120.126,235.972 120.167,236.189 120.133 C 236.523 120.080,236.499 120.057,236.036 119.980 C 235.705 119.925,235.550 119.950,235.642 120.042 M210.042 120.750 C 210.044 121.117,210.078 121.247,210.118 121.040 C 210.158 120.832,210.156 120.532,210.115 120.373 C 210.073 120.214,210.040 120.383,210.042 120.750 " stroke="none" fill="#000000" fill-rule="evenodd"></path></g></svg>