<svg id="svg" version="1.1" xmlns="http://www.w3.org/2000/svg" xmlns:xlink="http://www.w3.org/1999/xlink" width="400" height="400" viewBox="0, 0, 400,400"><g id="svgg"><path id="path0" d="M0.000 200.000 L 0.000 400.000 200.000 400.000 L 400.000 400.000 400.000 200.000 L 400.000 0.000 200.000 0.000 L 0.000 0.000 0.000 200.000 M215.146 130.298 C 217.653 132.167,218.522 136.164,216.898 138.357 C 213.203 143.347,206.006 141.235,206.001 135.159 C 205.998 130.476,211.477 127.563,215.146 130.298 M185.175 135.377 C 186.192 136.298,195.739 137.405,197.253 136.778 C 198.776 136.147,199.315 136.652,199.956 139.311 C 200.554 141.789,200.028 142.975,198.465 142.676 C 197.076 142.409,188.780 147.448,188.081 148.982 C 187.622 149.989,185.913 150.429,185.439 149.663 C 184.743 148.537,182.464 136.228,182.826 135.551 C 183.306 134.655,184.295 134.581,185.175 135.377 M181.753 140.024 C 182.688 140.877,181.597 141.702,179.893 141.430 C 177.940 141.117,177.395 140.711,177.737 139.821 C 177.991 139.159,180.970 139.310,181.753 140.024 M182.224 142.838 C 182.692 143.596,181.471 144.361,179.600 144.483 C 178.041 144.584,177.800 144.495,177.800 143.818 C 177.800 142.668,181.599 141.827,182.224 142.838 M209.871 144.783 C 211.773 147.249,211.892 147.250,213.761 144.800 C 215.883 142.018,218.376 141.882,220.904 144.410 L 222.514 146.020 222.286 148.910 C 221.574 157.927,220.726 162.135,219.336 163.535 L 218.011 164.869 216.856 175.433 C 215.516 187.677,215.722 187.200,211.800 187.200 C 207.869 187.200,208.223 188.352,206.121 168.748 C 205.097 159.207,204.203 151.327,204.134 151.238 C 204.065 151.149,203.028 152.004,201.828 153.138 C 198.754 156.046,198.162 155.970,194.050 152.150 C 190.310 148.676,190.325 148.749,193.039 147.181 L 195.061 146.014 196.750 147.256 L 198.439 148.498 201.377 145.649 C 205.349 141.797,207.406 141.587,209.871 144.783 M183.200 145.422 C 183.200 146.182,180.575 148.093,179.752 147.933 C 178.494 147.689,178.731 146.855,180.402 145.645 C 182.031 144.464,183.200 144.371,183.200 145.422 M222.989 212.500 C 223.127 213.215,225.435 220.358,228.116 228.373 L 232.990 242.947 234.915 236.973 C 237.233 229.782,242.000 213.410,242.000 212.641 C 242.000 212.093,242.676 211.942,247.700 211.370 L 250.000 211.108 250.002 216.254 C 250.005 224.504,251.323 242.513,252.270 247.249 L 252.500 248.400 249.050 248.400 L 245.600 248.400 245.599 241.500 C 245.599 234.283,244.952 222.429,244.459 220.584 C 244.165 219.485,241.514 227.183,236.962 242.348 C 234.923 249.142,235.585 248.284,232.252 248.457 L 229.503 248.600 228.768 245.774 C 228.031 242.945,220.194 219.661,219.870 219.336 C 219.447 218.914,219.087 226.308,219.020 236.800 L 218.947 248.200 216.374 248.200 C 213.880 248.200,213.802 248.169,213.858 247.200 C 213.891 246.650,214.236 243.050,214.627 239.200 C 215.088 234.655,215.348 228.652,215.368 222.084 C 215.404 210.618,215.020 211.740,219.000 211.477 C 220.100 211.404,221.391 211.312,221.868 211.272 C 222.552 211.215,222.790 211.477,222.989 212.500 M359.760 212.842 C 360.731 218.915,370.190 243.863,372.613 246.742 C 373.966 248.351,373.677 248.464,368.572 248.315 L 364.600 248.200 364.485 246.600 C 364.422 245.720,363.717 242.885,362.919 240.300 L 361.469 235.600 355.761 235.600 C 350.673 235.600,350.031 235.676,349.841 236.300 C 349.075 238.822,348.000 244.715,348.000 246.396 L 348.000 248.400 344.400 248.400 C 340.913 248.400,339.758 247.891,341.209 246.994 C 342.613 246.127,345.537 238.109,350.616 221.200 C 353.853 210.423,352.699 211.816,358.849 211.259 C 359.315 211.217,359.572 211.663,359.760 212.842 M53.243 214.067 C 53.095 216.867,53.332 216.753,49.322 215.933 C 47.385 215.537,45.112 215.210,44.271 215.207 L 42.742 215.200 42.915 230.900 C 43.010 239.535,43.158 246.960,43.244 247.400 C 43.389 248.145,43.156 248.208,39.849 248.316 C 36.306 248.432,36.299 248.431,36.599 247.516 C 36.984 246.341,37.368 218.419,37.023 216.584 C 36.717 214.951,35.689 214.813,31.200 215.800 C 26.895 216.747,26.895 216.747,26.737 214.166 C 26.662 212.937,26.630 211.902,26.667 211.866 C 26.703 211.830,32.723 211.833,40.045 211.873 L 53.356 211.945 53.243 214.067 M118.279 212.700 C 117.796 215.108,117.222 216.096,116.494 215.775 C 116.112 215.607,113.145 215.389,109.900 215.291 L 104.000 215.113 104.000 221.356 L 104.000 227.600 110.000 227.600 C 116.419 227.600,116.377 227.583,115.351 229.734 L 114.702 231.095 109.351 230.891 L 104.000 230.687 104.000 237.792 L 104.000 244.897 110.100 244.698 C 113.917 244.573,116.903 244.273,118.079 243.895 C 120.405 243.147,120.384 243.124,119.826 245.909 L 119.368 248.200 108.472 248.306 L 97.576 248.413 97.888 245.706 C 98.278 242.321,98.300 218.343,97.916 214.707 L 97.631 212.015 106.716 211.900 C 111.712 211.836,116.408 211.743,117.150 211.692 C 118.425 211.605,118.488 211.661,118.279 212.700 M282.134 211.900 C 282.821 213.041,280.922 215.794,279.582 215.600 C 278.822 215.490,275.860 215.400,273.000 215.400 L 267.800 215.400 267.690 221.500 L 267.579 227.600 273.773 227.600 L 279.967 227.600 279.244 229.300 L 278.520 231.000 273.060 230.852 L 267.600 230.703 267.600 235.293 C 267.600 237.817,267.718 241.010,267.862 242.388 L 268.124 244.894 274.162 244.700 C 278.372 244.565,280.733 244.307,281.962 243.849 C 284.144 243.035,284.074 242.942,283.519 245.923 L 283.059 248.400 272.137 248.400 L 261.215 248.400 261.508 246.500 C 261.888 244.030,261.889 216.375,261.509 213.907 L 261.217 212.015 270.509 211.900 C 275.619 211.836,280.284 211.743,280.876 211.692 C 281.468 211.642,282.034 211.735,282.134 211.900 M65.002 212.700 C 64.846 213.085,64.621 216.595,64.502 220.500 L 64.285 227.600 72.405 227.600 L 80.524 227.600 80.253 221.315 C 80.104 217.858,79.873 214.348,79.740 213.515 L 79.498 212.000 83.094 212.000 L 86.691 212.000 86.324 214.019 C 85.958 216.034,86.029 246.463,86.403 247.600 C 86.566 248.098,85.994 248.220,83.045 248.316 L 79.490 248.433 79.745 246.916 C 79.886 246.082,80.119 242.115,80.264 238.100 L 80.526 230.800 72.409 230.800 L 64.292 230.800 64.495 238.900 C 64.606 243.355,64.766 247.270,64.849 247.600 C 64.973 248.093,64.376 248.221,61.505 248.316 L 58.009 248.431 58.305 245.916 C 58.688 242.654,58.689 217.756,58.306 214.500 L 58.012 212.000 61.649 212.000 C 64.954 212.000,65.260 212.064,65.002 212.700 M155.816 212.610 C 161.680 214.110,164.450 218.577,163.213 224.536 C 161.938 230.678,155.967 234.411,148.259 233.885 L 145.118 233.670 145.324 239.935 C 145.437 243.381,145.656 246.695,145.811 247.300 L 146.093 248.400 142.411 248.400 L 138.730 248.400 139.065 246.700 C 139.484 244.576,139.510 216.013,139.095 213.700 L 138.791 212.000 146.111 212.000 C 151.363 212.000,154.106 212.172,155.816 212.610 M187.416 212.618 C 197.206 215.158,196.702 228.185,186.701 231.124 C 183.889 231.951,183.816 231.464,187.435 236.000 C 193.399 243.476,195.389 245.677,197.082 246.669 C 199.489 248.080,198.959 248.400,194.222 248.400 C 190.153 248.400,190.082 248.384,189.390 247.300 C 185.516 241.228,178.578 232.000,177.886 232.000 C 177.077 232.000,177.039 243.874,177.837 247.300 L 178.093 248.400 174.429 248.400 L 170.764 248.400 171.082 246.900 C 171.257 246.075,171.400 237.885,171.400 228.700 L 171.400 212.000 178.216 212.000 C 183.070 212.000,185.718 212.178,187.416 212.618 M312.313 213.168 C 319.874 215.918,323.619 225.565,321.010 235.576 C 318.436 245.453,313.782 248.170,299.400 248.189 L 291.000 248.200 291.200 246.000 C 291.518 242.499,291.432 216.839,291.093 214.268 L 290.786 211.936 300.293 212.096 C 308.963 212.241,310.021 212.335,312.313 213.168 M336.492 213.900 C 336.332 214.945,336.200 222.280,336.200 230.200 C 336.200 238.120,336.332 245.455,336.492 246.500 L 336.785 248.400 333.211 248.400 L 329.638 248.400 329.919 246.300 C 330.073 245.145,330.200 237.900,330.200 230.200 C 330.200 222.500,330.073 215.255,329.919 214.100 L 329.638 212.000 333.211 212.000 L 336.785 212.000 336.492 213.900 M145.200 222.776 C 145.200 231.881,144.954 231.321,148.967 231.353 C 154.482 231.397,157.304 228.479,157.355 222.677 C 157.405 216.951,155.046 214.800,148.715 214.800 L 145.200 214.800 145.200 222.776 M177.452 215.700 C 177.319 216.195,177.208 219.435,177.205 222.900 L 177.200 229.200 180.300 229.191 C 186.426 229.174,188.635 226.914,188.334 220.970 C 188.093 216.183,186.492 214.888,180.747 214.830 C 177.906 214.802,177.677 214.863,177.452 215.700 M297.295 229.652 L 297.400 244.200 303.400 244.198 C 313.969 244.195,315.934 241.762,315.498 229.222 C 315.122 218.437,312.510 215.724,302.095 215.302 L 297.190 215.103 297.295 229.652 M353.238 223.677 C 352.081 227.705,351.047 231.315,350.940 231.700 C 350.763 232.339,351.167 232.400,355.545 232.400 L 360.344 232.400 360.024 231.300 C 358.071 224.601,355.840 217.295,355.619 216.877 C 355.467 216.589,354.396 219.646,353.238 223.677 M72.500 262.460 C 72.154 262.806,72.196 263.218,72.668 264.131 L 73.295 265.344 73.830 264.372 C 74.124 263.837,74.271 263.085,74.156 262.700 C 73.994 262.161,74.182 262.000,74.973 262.000 C 75.538 262.000,76.000 262.180,76.000 262.400 C 76.000 262.620,75.853 262.800,75.674 262.800 C 74.400 262.800,72.945 268.469,74.100 268.935 C 74.375 269.046,73.880 269.137,73.000 269.137 C 72.120 269.137,71.625 269.046,71.900 268.935 C 73.065 268.465,71.763 263.475,70.317 262.867 C 69.474 262.512,70.161 262.000,71.480 262.000 C 72.594 262.000,72.847 262.113,72.500 262.460 M87.018 262.982 C 89.331 265.294,87.786 269.200,84.560 269.200 C 81.389 269.200,80.044 265.495,82.369 263.169 C 83.861 261.677,85.642 261.606,87.018 262.982 M96.400 262.400 C 96.400 262.620,96.220 262.800,96.000 262.800 C 95.779 262.800,95.600 263.850,95.600 265.151 C 95.600 267.871,96.103 268.516,98.074 268.327 L 99.400 268.200 99.518 265.500 C 99.592 263.813,99.480 262.800,99.218 262.800 C 98.988 262.800,98.800 262.620,98.800 262.400 C 98.800 262.180,99.352 262.000,100.027 262.000 C 101.008 262.000,101.212 262.141,101.047 262.700 C 100.933 263.085,100.718 264.708,100.568 266.306 C 100.368 268.433,100.172 269.109,99.834 268.829 C 99.549 268.592,99.150 268.587,98.787 268.817 C 96.925 269.994,94.793 269.052,94.583 266.958 C 94.497 266.101,94.348 264.635,94.251 263.700 C 94.081 262.050,94.110 262.000,95.238 262.000 C 95.877 262.000,96.400 262.180,96.400 262.400 M111.600 262.800 C 112.569 263.769,112.595 264.147,111.754 264.989 C 111.159 265.584,111.159 265.692,111.754 266.349 C 112.109 266.742,112.400 267.328,112.400 267.651 C 112.400 267.975,112.625 268.471,112.900 268.754 C 113.304 269.169,113.208 269.242,112.400 269.134 C 111.598 269.026,111.360 268.723,111.200 267.600 C 110.897 265.476,108.800 265.249,108.800 267.340 C 108.800 268.106,109.025 268.824,109.300 268.935 C 109.575 269.046,109.260 269.151,108.600 269.169 L 107.400 269.202 107.530 266.001 C 107.616 263.902,107.513 262.800,107.230 262.800 C 106.994 262.800,106.800 262.620,106.800 262.400 C 106.800 261.614,110.743 261.943,111.600 262.800 M130.399 263.300 C 130.400 263.905,130.220 264.400,130.000 264.400 C 129.780 264.400,129.600 264.152,129.600 263.849 C 129.600 263.041,128.601 262.348,127.851 262.636 C 126.654 263.095,127.135 264.304,128.900 265.276 C 131.772 266.857,131.007 269.395,127.739 269.126 C 126.299 269.008,125.016 267.200,126.372 267.200 C 126.607 267.200,126.800 267.451,126.800 267.757 C 126.800 268.465,127.883 268.891,128.879 268.575 C 130.077 268.195,129.561 267.104,127.696 266.075 C 124.952 264.562,125.740 261.882,128.866 262.095 C 130.246 262.190,130.399 262.310,130.399 263.300 M142.892 262.890 C 142.764 263.379,142.586 263.559,142.497 263.290 C 142.407 263.020,141.919 262.800,141.413 262.800 C 140.121 262.800,139.458 267.815,140.636 268.676 C 141.265 269.136,141.135 269.196,139.576 269.168 C 138.599 269.151,138.025 269.046,138.300 268.935 C 139.409 268.488,138.945 262.800,137.800 262.800 C 137.250 262.800,136.800 262.980,136.800 263.200 C 136.800 263.420,136.620 263.600,136.400 263.600 C 136.180 263.600,136.000 263.240,136.000 262.800 C 136.000 262.060,136.267 262.000,139.563 262.000 C 143.048 262.000,143.120 262.019,142.892 262.890 M154.164 263.231 C 156.339 265.816,154.916 269.200,151.654 269.200 C 148.857 269.200,147.290 266.532,148.600 264.000 C 149.830 261.622,152.500 261.253,154.164 263.231 M165.828 262.831 C 166.534 263.611,166.540 263.730,165.925 264.801 C 165.440 265.646,165.396 265.990,165.755 266.127 C 166.703 266.491,167.239 269.200,166.363 269.200 C 165.859 269.200,165.600 268.920,165.600 268.374 C 165.600 266.996,164.839 266.000,163.786 266.000 C 162.699 266.000,162.460 267.017,163.214 268.426 C 163.583 269.115,163.490 269.200,162.365 269.200 C 161.302 269.200,161.179 269.107,161.587 268.615 C 162.106 267.990,162.001 263.947,161.433 262.700 C 160.924 261.582,164.802 261.697,165.828 262.831 M174.644 262.700 C 174.529 263.085,174.676 263.837,174.970 264.372 L 175.505 265.344 176.132 264.131 C 176.604 263.218,176.646 262.806,176.300 262.460 C 175.953 262.113,176.173 262.000,177.190 262.000 L 178.539 262.000 177.720 262.900 C 176.032 264.753,175.285 268.445,176.500 268.935 C 176.775 269.046,176.289 269.151,175.420 269.168 C 174.191 269.193,173.947 269.093,174.320 268.720 C 175.159 267.881,174.842 266.245,173.423 264.091 L 172.046 262.000 173.450 262.000 C 174.600 262.000,174.816 262.127,174.644 262.700 M203.418 262.982 C 205.636 265.199,204.106 269.200,201.040 269.200 C 197.770 269.200,196.244 265.218,198.658 262.981 C 200.079 261.664,202.101 261.665,203.418 262.982 M212.800 262.400 C 212.800 262.620,212.612 262.800,212.382 262.800 C 212.120 262.800,212.008 263.813,212.082 265.500 L 212.200 268.200 213.800 268.200 L 215.400 268.200 215.400 265.100 C 215.400 262.266,215.469 261.999,216.200 262.000 C 216.950 262.000,216.991 262.220,216.859 265.500 C 216.714 269.096,216.569 269.721,216.068 268.910 C 215.878 268.603,215.576 268.570,215.189 268.815 C 212.588 270.460,210.959 269.030,210.733 264.900 L 210.574 262.000 211.687 262.000 C 212.299 262.000,212.800 262.180,212.800 262.400 M227.626 262.414 C 228.486 262.874,228.656 264.384,227.929 265.111 C 227.569 265.471,227.615 265.754,228.129 266.322 C 228.498 266.730,228.800 267.439,228.800 267.898 C 228.800 268.358,229.025 268.824,229.300 268.935 C 229.575 269.046,229.305 269.151,228.700 269.168 C 227.754 269.196,227.600 269.043,227.600 268.080 C 227.600 266.794,226.959 266.000,225.920 266.000 C 225.062 266.000,224.868 268.599,225.700 268.935 C 225.975 269.046,225.480 269.137,224.600 269.137 C 223.720 269.137,223.225 269.046,223.500 268.935 C 224.115 268.687,224.211 262.800,223.600 262.800 C 223.380 262.800,223.200 262.620,223.200 262.400 C 223.200 261.873,226.636 261.884,227.626 262.414 M246.736 262.962 C 246.812 263.359,246.678 263.882,246.438 264.122 C 246.121 264.439,246.000 264.376,246.000 263.894 C 246.000 262.834,244.584 262.273,243.824 263.033 C 243.029 263.828,243.273 264.217,245.178 265.189 C 248.058 266.658,247.440 269.352,244.276 269.122 C 242.724 269.009,242.595 268.911,242.537 267.800 C 242.498 267.073,242.546 266.940,242.659 267.462 C 242.905 268.598,244.698 269.073,245.545 268.226 C 246.275 267.496,245.969 267.082,243.958 266.078 C 242.324 265.262,241.856 263.387,243.066 262.503 C 244.111 261.738,246.559 262.045,246.736 262.962 M259.168 262.900 C 259.151 263.395,259.046 263.575,258.935 263.300 C 258.824 263.025,258.208 262.800,257.567 262.800 L 256.400 262.800 256.400 265.767 C 256.400 267.766,256.563 268.799,256.900 268.935 C 257.175 269.046,256.680 269.137,255.800 269.137 C 254.920 269.137,254.425 269.046,254.700 268.935 C 255.746 268.513,255.354 262.800,254.280 262.800 C 253.774 262.800,253.144 263.016,252.880 263.280 C 252.507 263.653,252.400 263.564,252.400 262.880 C 252.400 262.042,252.564 262.000,255.800 262.000 C 259.069 262.000,259.199 262.035,259.168 262.900 M269.226 262.414 C 270.086 262.874,270.256 264.384,269.529 265.111 C 269.169 265.471,269.215 265.754,269.729 266.322 C 270.098 266.730,270.400 267.439,270.400 267.898 C 270.400 268.358,270.625 268.824,270.900 268.935 C 271.175 269.046,270.905 269.151,270.300 269.168 C 269.310 269.197,269.200 269.064,269.200 267.843 C 269.200 266.512,268.691 266.000,267.367 266.000 C 266.645 266.000,266.585 268.646,267.300 268.935 C 267.575 269.046,267.080 269.137,266.200 269.137 C 265.320 269.137,264.825 269.046,265.100 268.935 C 265.715 268.687,265.811 262.800,265.200 262.800 C 264.980 262.800,264.800 262.620,264.800 262.400 C 264.800 261.873,268.236 261.884,269.226 262.414 M281.405 264.800 C 281.792 266.010,282.359 267.495,282.664 268.100 C 283.216 269.191,283.210 269.200,281.910 269.168 C 281.190 269.151,280.812 269.050,281.071 268.945 C 282.089 268.529,280.832 266.400,279.568 266.400 C 278.236 266.400,277.414 268.184,278.446 268.837 C 278.830 269.080,278.598 269.190,277.691 269.194 C 276.430 269.200,276.403 269.167,276.952 268.300 C 277.266 267.805,277.931 266.410,278.430 265.200 C 280.030 261.317,280.281 261.284,281.405 264.800 M294.368 262.900 C 294.351 263.395,294.246 263.575,294.135 263.300 C 293.846 262.583,292.131 262.682,291.843 263.433 C 291.385 264.625,291.577 268.724,292.100 268.935 C 292.375 269.046,291.880 269.137,291.000 269.137 C 290.120 269.137,289.625 269.046,289.900 268.935 C 291.009 268.488,290.545 262.800,289.400 262.800 C 288.850 262.800,288.400 262.980,288.400 263.200 C 288.400 263.420,288.220 263.600,288.000 263.600 C 287.780 263.600,287.600 263.240,287.600 262.800 C 287.600 262.063,287.867 262.000,291.000 262.000 C 294.269 262.000,294.399 262.035,294.368 262.900 M305.200 262.800 C 305.200 263.240,305.020 263.600,304.800 263.600 C 304.580 263.600,304.400 263.420,304.400 263.200 C 304.400 262.980,303.860 262.800,303.200 262.800 C 302.133 262.800,302.000 262.933,302.000 264.000 C 302.000 265.302,303.326 265.714,304.320 264.720 C 304.693 264.347,304.800 264.474,304.800 265.295 C 304.800 266.277,304.704 266.334,303.400 266.123 C 302.050 265.903,302.000 265.940,302.000 267.148 C 302.000 268.644,304.950 269.134,305.324 267.700 C 305.437 267.269,305.525 267.423,305.554 268.100 L 305.600 269.200 302.700 269.194 C 300.918 269.190,300.010 269.055,300.345 268.843 C 300.752 268.584,300.852 267.681,300.742 265.249 L 300.594 262.000 302.897 262.000 C 304.933 262.000,305.200 262.093,305.200 262.800 M318.000 263.300 C 318.000 263.905,317.809 264.400,317.576 264.400 C 317.343 264.400,317.256 264.232,317.383 264.027 C 318.216 262.679,315.052 262.112,313.782 263.382 C 311.902 265.262,313.116 268.800,315.642 268.800 C 317.105 268.800,317.655 267.722,316.589 266.942 C 315.918 266.452,315.996 266.400,317.404 266.400 C 318.614 266.400,318.853 266.507,318.480 266.880 C 318.216 267.144,318.000 267.665,318.000 268.037 C 318.000 269.633,313.665 269.718,312.429 268.146 C 311.494 266.957,311.319 264.505,312.100 263.526 C 313.644 261.591,318.000 261.424,318.000 263.300 M326.500 262.460 C 326.154 262.806,326.196 263.218,326.668 264.131 L 327.295 265.344 327.830 264.372 C 328.124 263.837,328.271 263.085,328.156 262.700 C 327.994 262.161,328.182 262.000,328.973 262.000 C 329.538 262.000,330.000 262.180,330.000 262.400 C 330.000 262.620,329.853 262.800,329.674 262.800 C 328.400 262.800,326.945 268.469,328.100 268.935 C 328.375 269.046,327.880 269.137,327.000 269.137 C 326.120 269.137,325.625 269.046,325.900 268.935 C 327.065 268.465,325.763 263.475,324.317 262.867 C 323.474 262.512,324.161 262.000,325.480 262.000 C 326.594 262.000,326.847 262.113,326.500 262.460 M83.382 263.382 C 82.138 264.626,82.050 266.850,83.200 268.000 C 84.821 269.621,86.800 268.302,86.800 265.600 C 86.800 262.812,85.073 261.691,83.382 263.382 M150.390 263.128 C 148.374 264.760,149.757 269.249,152.095 268.662 C 154.046 268.172,154.606 264.970,153.018 263.382 C 151.844 262.207,151.560 262.180,150.390 263.128 M199.620 263.180 C 198.049 264.751,198.915 268.800,200.823 268.800 C 202.111 268.800,203.200 267.369,203.200 265.676 C 203.200 263.040,201.174 261.626,199.620 263.180 M108.800 264.200 C 108.800 265.325,108.954 265.600,109.586 265.600 C 110.647 265.600,111.424 264.151,110.779 263.374 C 109.838 262.240,108.800 262.673,108.800 264.200 M162.800 264.200 C 162.800 265.730,163.838 266.159,164.784 265.019 C 165.522 264.131,164.915 262.800,163.773 262.800 C 162.928 262.800,162.800 262.984,162.800 264.200 M225.200 264.200 C 225.200 265.481,225.308 265.640,226.100 265.528 C 226.805 265.428,227.000 265.140,227.000 264.200 C 227.000 263.260,226.805 262.972,226.100 262.872 C 225.308 262.760,225.200 262.919,225.200 264.200 M266.800 264.200 C 266.800 265.481,266.908 265.640,267.700 265.528 C 268.405 265.428,268.600 265.140,268.600 264.200 C 268.600 263.260,268.405 262.972,267.700 262.872 C 266.908 262.760,266.800 262.919,266.800 264.200 M279.281 264.581 C 278.653 265.961,278.661 266.000,279.600 266.000 C 280.429 266.000,280.552 265.528,280.053 264.262 C 279.794 263.602,279.712 263.636,279.281 264.581 M184.243 268.569 C 184.508 269.257,183.743 270.800,183.137 270.800 C 182.825 270.800,182.824 270.653,183.134 270.279 C 183.372 269.993,183.463 269.363,183.337 268.879 C 183.082 267.904,183.883 267.630,184.243 268.569 " stroke="none" fill="#dbc3ab" fill-rule="evenodd"></path><path id="path1" d="M182.949 135.790 C 182.700 136.438,185.231 148.800,185.612 148.800 C 185.908 148.800,190.085 137.152,189.867 136.934 C 189.780 136.847,188.785 136.666,187.657 136.532 C 186.529 136.399,185.403 136.044,185.154 135.745 C 184.555 135.023,183.233 135.049,182.949 135.790 M177.600 140.099 C 177.600 141.051,181.252 141.687,181.783 140.828 C 182.110 140.298,181.530 140.030,179.433 139.743 C 177.950 139.539,177.600 139.607,177.600 140.099 M179.663 142.800 C 177.910 143.212,177.223 143.881,178.177 144.247 C 179.196 144.638,181.800 143.909,181.800 143.233 C 181.800 142.508,181.322 142.411,179.663 142.800 M180.693 145.814 C 179.370 146.714,178.672 148.000,179.507 148.000 C 180.193 148.000,182.800 145.930,182.800 145.386 C 182.800 144.568,182.410 144.648,180.693 145.814 M217.391 211.888 L 215.782 212.037 215.713 221.119 C 215.654 228.991,215.041 238.704,214.149 245.900 L 213.889 248.000 216.344 248.000 L 218.800 248.000 218.800 239.264 C 218.800 229.187,219.206 218.400,219.585 218.400 C 219.912 218.400,226.685 237.904,228.449 243.923 C 229.909 248.906,229.771 248.793,233.642 248.153 C 235.072 247.916,235.092 247.885,236.164 244.257 C 239.216 233.932,244.181 218.823,244.434 219.093 C 244.987 219.682,245.600 230.179,245.600 239.057 L 245.600 248.000 248.800 248.000 C 250.837 248.000,252.000 247.842,252.000 247.565 C 252.000 247.326,251.738 244.941,251.418 242.265 C 250.716 236.401,250.116 227.836,249.750 218.458 L 249.479 211.515 246.039 211.798 C 241.903 212.139,242.702 211.162,240.766 218.233 C 239.868 221.515,238.139 227.350,236.926 231.200 C 235.712 235.050,234.365 239.342,233.932 240.739 C 233.498 242.135,233.059 243.192,232.955 243.088 C 232.525 242.658,222.800 213.404,222.800 212.540 C 222.800 211.540,222.091 211.454,217.391 211.888 M355.053 211.957 L 353.507 212.200 352.537 215.600 C 348.407 230.080,343.613 243.891,341.776 246.598 L 340.824 248.000 344.157 248.000 L 347.490 248.000 347.750 245.700 C 347.894 244.435,348.398 241.645,348.872 239.500 L 349.732 235.600 355.645 235.600 L 361.558 235.600 363.179 240.583 C 364.070 243.324,364.800 246.114,364.800 246.783 L 364.800 248.000 369.047 248.000 L 373.295 248.000 372.307 246.700 C 369.965 243.620,361.888 222.392,359.597 213.300 C 359.129 211.440,358.855 211.359,355.053 211.957 M26.806 213.700 C 26.815 216.298,27.008 216.425,30.006 215.805 C 31.433 215.510,33.648 215.141,34.928 214.985 L 37.256 214.701 37.128 231.351 L 37.000 248.000 40.147 248.000 L 43.293 248.000 43.025 246.900 C 42.619 245.236,42.258 221.317,42.586 217.815 L 42.873 214.752 45.136 215.013 C 46.381 215.156,48.551 215.531,49.959 215.845 C 52.967 216.516,52.642 216.703,52.992 214.100 L 53.275 212.000 40.038 212.000 L 26.800 212.000 26.806 213.700 M58.600 230.000 L 58.600 248.000 61.752 248.000 L 64.905 248.000 64.648 246.500 C 64.507 245.675,64.275 241.805,64.133 237.900 L 63.874 230.800 72.137 230.800 L 80.400 230.800 80.371 237.300 C 80.355 240.875,80.207 244.745,80.043 245.900 L 79.743 248.000 83.053 248.000 L 86.362 248.000 86.081 245.900 C 85.714 243.160,85.716 216.829,86.083 214.084 L 86.366 211.968 83.083 212.084 C 80.401 212.179,79.828 212.310,79.951 212.800 C 80.035 213.130,80.194 216.595,80.305 220.500 L 80.508 227.600 72.191 227.600 L 63.875 227.600 64.140 221.300 C 64.286 217.835,64.518 214.325,64.655 213.500 L 64.905 212.000 61.752 212.000 L 58.600 212.000 58.600 230.000 M97.922 212.211 C 97.806 212.327,97.859 213.182,98.038 214.111 C 98.465 216.317,98.463 244.092,98.036 246.300 L 97.707 248.000 108.421 248.000 L 119.134 248.000 119.575 245.942 C 120.119 243.405,120.249 243.503,117.383 244.270 C 115.821 244.688,113.140 244.923,109.600 244.954 L 104.200 245.000 103.868 238.066 C 103.685 234.252,103.641 231.025,103.771 230.896 C 103.901 230.766,106.435 230.681,109.403 230.707 C 112.372 230.733,114.800 230.697,114.800 230.626 C 114.800 230.556,115.082 229.823,115.427 228.997 L 116.054 227.497 109.936 227.648 C 102.696 227.828,103.391 228.642,103.800 220.464 L 104.089 214.685 109.544 214.939 C 112.545 215.079,115.472 215.302,116.050 215.434 C 117.009 215.653,117.154 215.515,117.726 213.837 L 118.351 212.000 108.242 212.000 C 102.682 212.000,98.038 212.095,97.922 212.211 M139.507 215.000 C 139.997 219.677,139.854 244.796,139.328 246.500 L 138.864 248.000 142.400 248.000 L 145.936 248.000 145.525 246.513 C 145.299 245.695,145.089 242.433,145.057 239.262 L 145.000 233.498 148.941 233.573 C 157.588 233.738,162.668 229.932,163.116 222.954 C 163.639 214.793,159.783 212.272,146.707 212.226 L 139.213 212.200 139.507 215.000 M171.521 214.000 C 172.024 217.245,171.852 245.259,171.321 246.700 L 170.842 248.000 174.379 248.000 L 177.916 248.000 177.567 246.500 C 177.376 245.675,177.215 241.985,177.210 238.300 C 177.197 229.374,177.069 229.348,184.427 239.799 L 190.200 247.999 194.389 247.999 C 198.414 248.000,198.539 247.974,197.589 247.340 C 195.427 245.898,184.000 232.884,184.000 231.864 C 184.000 231.771,184.855 231.484,185.900 231.227 C 195.743 228.804,197.335 215.668,188.116 212.948 C 186.328 212.421,184.139 212.258,178.521 212.233 L 171.243 212.200 171.521 214.000 M261.905 215.100 C 262.288 219.122,262.287 240.882,261.905 244.907 L 261.609 248.013 272.301 247.907 L 282.993 247.800 283.343 245.880 C 283.779 243.493,283.847 243.544,281.199 244.263 C 279.824 244.636,276.903 244.886,273.400 244.930 L 267.800 245.000 267.691 237.900 L 267.582 230.800 269.291 230.722 C 270.231 230.680,272.654 230.700,274.676 230.768 L 278.351 230.891 278.976 229.396 C 279.319 228.575,279.600 227.807,279.600 227.690 C 279.600 227.573,276.896 227.599,273.590 227.748 L 267.580 228.019 267.690 221.510 L 267.800 215.000 272.000 215.000 C 274.310 215.000,277.239 215.137,278.508 215.304 C 281.017 215.635,280.893 215.727,281.774 212.900 L 282.054 212.000 271.832 212.000 L 261.610 212.000 261.905 215.100 M291.495 215.800 C 291.937 221.018,291.786 244.284,291.297 246.300 L 290.885 248.000 298.823 248.000 C 313.851 248.000,318.789 245.002,321.007 234.534 C 324.355 218.734,317.297 211.756,298.295 212.079 L 291.190 212.200 291.495 215.800 M330.304 215.700 C 330.687 220.486,330.687 240.882,330.305 244.900 L 330.010 248.000 333.207 248.000 L 336.405 248.000 336.102 244.500 C 335.712 239.978,335.711 221.401,336.102 216.100 L 336.404 212.000 333.206 212.000 L 330.009 212.000 330.304 215.700 M154.404 215.700 C 156.616 217.205,157.282 218.447,157.495 221.463 C 157.948 227.862,154.885 231.569,149.126 231.591 C 144.468 231.609,144.190 230.713,145.060 218.461 L 145.320 214.800 149.201 214.800 C 152.567 214.800,153.257 214.919,154.404 215.700 M185.857 215.454 C 188.266 216.597,189.363 220.385,188.422 224.309 C 187.572 227.850,184.872 229.600,180.256 229.600 C 177.049 229.600,177.200 229.977,177.200 221.957 L 177.200 214.800 180.840 214.800 C 183.379 214.800,184.895 214.998,185.857 215.454 M308.169 215.771 C 313.336 217.326,315.395 220.704,315.868 228.400 C 316.370 236.583,314.357 242.596,310.689 243.867 C 308.488 244.630,298.023 244.957,297.351 244.284 C 296.941 243.874,296.616 220.336,296.980 217.423 L 297.258 215.200 301.765 215.200 C 304.516 215.200,307.012 215.422,308.169 215.771 M358.134 224.235 C 359.380 228.435,360.400 232.080,360.400 232.335 C 360.400 232.664,358.923 232.800,355.373 232.800 C 350.768 232.800,350.365 232.741,350.566 232.100 C 350.739 231.549,354.082 220.163,355.096 216.674 C 355.446 215.468,355.774 216.284,358.134 224.235 M279.934 262.398 C 279.834 262.699,280.175 264.112,280.693 265.538 C 281.211 266.965,281.543 268.373,281.430 268.666 C 281.292 269.027,281.562 269.200,282.262 269.200 C 283.064 269.200,283.201 269.083,282.868 268.682 C 282.632 268.397,281.916 266.744,281.277 265.008 C 280.639 263.272,280.034 262.097,279.934 262.398 M70.812 262.700 C 70.819 262.865,71.268 263.720,71.810 264.600 C 72.864 266.310,73.123 268.603,72.300 268.935 C 72.025 269.046,72.430 269.137,73.200 269.137 C 73.970 269.137,74.375 269.046,74.100 268.935 C 73.825 268.824,73.600 268.141,73.600 267.417 C 73.600 266.066,71.821 262.400,71.166 262.400 C 70.965 262.400,70.806 262.535,70.812 262.700 M82.892 262.668 C 80.036 263.817,81.544 269.306,84.669 269.140 L 85.800 269.080 84.742 268.918 C 82.434 268.563,81.335 265.040,82.970 263.234 C 83.751 262.370,83.744 262.325,82.892 262.668 M85.840 262.706 C 87.193 263.609,87.530 265.801,86.595 267.609 C 86.105 268.557,86.095 268.738,86.541 268.567 C 88.604 267.775,88.017 262.378,85.871 262.406 C 85.537 262.410,85.528 262.498,85.840 262.706 M94.800 265.386 C 94.800 268.612,95.223 269.256,97.274 269.154 C 98.093 269.113,98.107 269.084,97.400 268.911 C 95.868 268.534,95.600 267.975,95.600 265.151 C 95.600 263.584,95.428 262.400,95.200 262.400 C 94.969 262.400,94.800 263.662,94.800 265.386 M99.532 265.351 C 99.443 267.347,99.562 268.452,99.900 268.766 C 100.297 269.136,100.400 268.530,100.400 265.816 C 100.400 261.633,99.714 261.266,99.532 265.351 M107.934 265.455 C 108.031 267.685,107.923 268.603,107.534 268.850 C 107.187 269.069,107.491 269.179,108.400 269.162 C 109.170 269.148,109.575 269.046,109.300 268.935 C 108.959 268.798,108.800 267.726,108.800 265.567 C 108.800 263.300,108.658 262.400,108.300 262.399 C 107.932 262.398,107.835 263.205,107.934 265.455 M110.720 262.880 C 111.402 263.562,111.315 265.181,110.582 265.462 C 110.062 265.662,110.093 265.790,110.782 266.272 C 111.291 266.629,111.600 267.290,111.600 268.023 C 111.600 268.986,111.763 269.194,112.500 269.168 C 112.995 269.151,113.175 269.046,112.900 268.935 C 112.625 268.824,112.400 268.388,112.400 267.967 C 112.400 267.545,112.052 266.852,111.627 266.427 C 110.964 265.764,110.936 265.585,111.427 265.178 C 112.421 264.353,111.868 262.400,110.640 262.400 C 110.418 262.400,110.453 262.613,110.720 262.880 M126.416 263.171 C 125.813 264.297,126.295 265.130,128.074 266.038 C 130.224 267.135,130.146 268.600,127.938 268.600 C 127.133 268.600,126.559 268.735,126.661 268.900 C 126.764 269.065,127.298 269.200,127.850 269.200 C 130.526 269.200,131.385 266.909,129.170 265.681 C 126.709 264.318,126.551 264.130,127.103 263.224 C 127.382 262.768,127.433 262.400,127.217 262.400 C 127.003 262.400,126.642 262.747,126.416 263.171 M139.200 265.567 C 139.200 267.726,139.041 268.798,138.700 268.935 C 138.425 269.046,138.830 269.137,139.600 269.137 C 140.370 269.137,140.775 269.046,140.500 268.935 C 140.159 268.798,140.000 267.726,140.000 265.567 C 140.000 263.722,139.833 262.400,139.600 262.400 C 139.367 262.400,139.200 263.722,139.200 265.567 M149.229 263.454 C 147.927 265.109,148.491 268.800,150.045 268.800 C 150.265 268.800,150.165 268.400,149.823 267.911 C 148.934 266.642,149.030 264.333,150.016 263.275 C 150.464 262.794,150.657 262.400,150.445 262.400 C 150.232 262.400,149.685 262.874,149.229 263.454 M153.348 263.247 C 154.196 264.458,154.191 267.126,153.338 268.069 C 152.974 268.471,152.856 268.800,153.076 268.800 C 155.146 268.800,155.512 263.823,153.521 262.758 C 152.724 262.331,152.718 262.348,153.348 263.247 M161.929 265.801 L 161.800 269.202 162.800 269.169 C 163.350 269.151,163.575 269.046,163.300 268.935 C 162.959 268.798,162.800 267.726,162.800 265.567 C 162.800 261.319,162.093 261.510,161.929 265.801 M164.700 262.841 C 165.424 263.592,165.314 265.094,164.500 265.568 C 164.115 265.792,163.997 265.981,164.238 265.988 C 165.830 266.032,166.542 262.741,165.000 262.465 C 164.353 262.350,164.296 262.422,164.700 262.841 M173.762 264.171 C 174.859 266.043,175.147 268.593,174.300 268.935 C 174.025 269.046,174.430 269.148,175.200 269.162 C 176.136 269.179,176.419 269.073,176.053 268.841 C 175.691 268.612,175.559 267.951,175.661 266.881 C 175.745 265.994,175.702 265.337,175.563 265.423 C 175.425 265.508,174.989 264.863,174.595 263.989 C 174.201 263.115,173.619 262.400,173.301 262.400 C 172.868 262.400,172.982 262.841,173.762 264.171 M198.429 263.454 C 197.201 265.015,197.568 267.995,199.059 268.567 C 199.505 268.738,199.495 268.557,199.005 267.609 C 198.176 266.007,198.247 264.703,199.229 263.454 C 199.685 262.874,199.878 262.400,199.658 262.400 C 199.438 262.400,198.885 262.874,198.429 263.454 M202.629 263.232 C 204.294 265.072,203.210 268.556,200.858 268.918 L 199.800 269.080 200.878 269.140 C 202.626 269.237,204.182 267.605,204.182 265.674 C 204.182 264.109,203.187 262.400,202.276 262.400 C 202.056 262.400,202.215 262.774,202.629 263.232 M211.125 265.299 C 211.258 268.374,211.752 269.225,213.376 269.175 C 214.174 269.150,214.172 269.138,213.326 268.797 C 211.954 268.244,211.515 267.017,211.820 264.578 C 212.033 262.872,211.974 262.400,211.546 262.399 C 211.123 262.398,211.028 263.053,211.125 265.299 M216.000 265.200 C 216.000 266.740,215.987 268.130,215.970 268.290 C 215.953 268.450,216.134 268.645,216.370 268.723 C 216.653 268.818,216.800 267.761,216.800 265.633 C 216.800 263.744,216.634 262.400,216.400 262.400 C 216.171 262.400,216.000 263.600,216.000 265.200 M224.338 265.448 C 224.453 267.720,224.353 268.584,223.946 268.842 C 223.563 269.085,223.732 269.190,224.514 269.194 C 225.515 269.199,225.583 269.116,225.188 268.378 C 224.946 267.926,224.780 267.161,224.819 266.678 C 224.968 264.800,224.785 262.400,224.492 262.400 C 224.323 262.400,224.254 263.772,224.338 265.448 M227.002 263.060 C 227.365 263.422,227.575 264.052,227.469 264.460 C 227.203 265.474,227.882 265.401,228.206 264.381 C 228.497 263.464,227.807 262.400,226.922 262.400 C 226.449 262.400,226.463 262.520,227.002 263.060 M242.880 262.880 C 241.783 263.977,242.584 265.326,244.927 266.327 C 246.569 267.027,246.295 268.552,244.497 268.726 C 243.445 268.827,243.121 268.672,242.822 267.926 C 242.462 267.027,242.450 267.025,242.425 267.857 C 242.382 269.338,244.990 269.737,246.173 268.430 C 247.188 267.308,246.805 266.314,244.995 265.367 C 243.732 264.707,243.403 264.311,243.416 263.467 C 243.424 262.880,243.415 262.400,243.396 262.400 C 243.376 262.400,243.144 262.616,242.880 262.880 M255.534 265.218 C 255.619 267.017,255.492 268.248,255.185 268.619 C 254.778 269.108,254.915 269.195,256.051 269.168 C 256.793 269.151,257.175 269.046,256.900 268.935 C 256.559 268.798,256.400 267.726,256.400 265.567 C 256.400 263.300,256.258 262.400,255.900 262.399 C 255.535 262.398,255.436 263.157,255.534 265.218 M265.934 265.455 C 266.031 267.685,265.923 268.603,265.534 268.850 C 265.165 269.083,265.331 269.190,266.068 269.194 C 267.077 269.200,267.117 269.129,266.791 267.900 C 266.602 267.185,266.481 265.655,266.523 264.500 C 266.567 263.315,266.426 262.399,266.200 262.399 C 265.957 262.398,265.852 263.594,265.934 265.455 M268.586 262.940 C 269.073 263.296,269.248 263.774,269.100 264.340 C 268.813 265.437,269.459 265.474,269.806 264.381 C 270.103 263.444,269.401 262.400,268.475 262.400 C 267.960 262.400,267.979 262.497,268.586 262.940 M290.800 265.567 C 290.800 267.726,290.641 268.798,290.300 268.935 C 290.025 269.046,290.430 269.137,291.200 269.137 C 291.970 269.137,292.375 269.046,292.100 268.935 C 291.759 268.798,291.600 267.726,291.600 265.567 C 291.600 263.722,291.433 262.400,291.200 262.400 C 290.967 262.400,290.800 263.722,290.800 265.567 M301.134 265.455 C 301.231 267.685,301.123 268.603,300.734 268.850 C 300.412 269.053,301.273 269.190,302.900 269.194 C 305.449 269.200,305.597 269.150,305.554 268.300 C 305.519 267.623,305.462 267.573,305.324 268.100 C 305.189 268.617,304.730 268.800,303.571 268.800 L 302.000 268.800 301.919 266.700 C 301.875 265.545,301.831 264.105,301.823 263.500 C 301.815 262.895,301.626 262.400,301.404 262.399 C 301.156 262.398,301.051 263.576,301.134 265.455 M312.429 263.454 C 310.458 265.960,312.274 269.305,315.519 269.147 C 316.437 269.103,316.389 269.057,315.200 268.847 C 312.997 268.458,312.023 266.193,313.113 263.991 C 314.011 262.175,313.655 261.895,312.429 263.454 M316.907 262.921 C 317.237 263.185,317.604 263.670,317.722 264.000 C 317.849 264.353,317.950 264.182,317.968 263.585 C 317.992 262.827,317.786 262.554,317.153 262.506 C 316.430 262.452,316.393 262.513,316.907 262.921 M324.812 262.700 C 324.819 262.865,325.268 263.720,325.810 264.600 C 326.864 266.310,327.123 268.603,326.300 268.935 C 326.025 269.046,326.430 269.137,327.200 269.137 C 327.970 269.137,328.375 269.046,328.100 268.935 C 327.825 268.824,327.600 268.141,327.600 267.417 C 327.600 266.066,325.821 262.400,325.166 262.400 C 324.965 262.400,324.806 262.535,324.812 262.700 M227.200 266.400 C 227.640 266.840,228.000 267.650,228.000 268.200 C 228.000 268.806,228.228 269.200,228.579 269.200 C 229.316 269.200,228.634 266.869,227.672 266.100 C 226.673 265.301,226.323 265.523,227.200 266.400 M268.800 266.400 C 269.240 266.840,269.600 267.650,269.600 268.200 C 269.600 268.801,269.829 269.200,270.172 269.200 C 270.939 269.200,270.286 266.809,269.325 266.100 C 268.262 265.316,267.915 265.515,268.800 266.400 M165.408 267.030 C 165.849 269.026,165.954 269.201,166.687 269.168 C 167.106 269.150,167.194 269.054,166.900 268.935 C 166.625 268.824,166.400 268.320,166.400 267.816 C 166.400 267.311,166.119 266.664,165.775 266.379 C 165.225 265.923,165.181 266.002,165.408 267.030 M316.700 266.665 C 316.975 266.776,317.200 267.312,317.200 267.857 C 317.200 269.087,317.837 268.767,318.097 267.406 C 318.263 266.534,318.150 266.404,317.245 266.432 C 316.670 266.449,316.425 266.554,316.700 266.665 M277.273 268.200 C 276.861 269.104,276.902 269.199,277.709 269.194 C 278.322 269.190,278.440 269.086,278.086 268.862 C 277.803 268.682,277.688 268.236,277.829 267.868 C 278.232 266.818,277.779 267.088,277.273 268.200 " stroke="none" fill="#000000" fill-rule="evenodd"></path><path id="path2" d="M209.308 129.986 C 204.912 131.981,204.845 138.148,209.194 140.459 C 214.327 143.187,219.849 137.094,216.790 132.077 C 215.975 130.739,213.319 129.218,211.800 129.218 C 211.360 129.218,210.239 129.563,209.308 129.986 M197.137 136.929 C 196.865 137.221,196.183 137.407,195.621 137.344 C 195.060 137.281,194.915 137.325,195.300 137.444 C 195.685 137.562,196.001 137.780,196.002 137.929 C 196.008 138.744,193.743 144.281,193.218 144.734 C 192.635 145.239,194.759 144.108,196.680 142.891 C 197.165 142.585,197.911 142.445,198.338 142.580 C 199.292 142.883,200.504 141.783,200.237 140.858 C 200.133 140.496,199.855 139.454,199.619 138.541 C 199.384 137.629,198.909 136.774,198.563 136.641 C 197.722 136.318,197.705 136.322,197.137 136.929 M203.531 143.870 C 202.799 144.459,201.364 145.739,200.342 146.714 L 198.485 148.486 196.950 147.443 C 195.183 146.243,191.600 146.792,191.600 148.263 C 191.600 148.364,191.787 148.332,192.016 148.190 C 192.281 148.026,192.346 148.276,192.194 148.880 C 191.997 149.666,192.430 150.284,194.739 152.513 C 198.204 155.858,198.761 155.908,201.782 153.147 C 203.017 152.018,204.093 151.163,204.173 151.247 C 204.253 151.331,205.153 159.118,206.173 168.551 C 208.340 188.603,207.919 187.200,211.765 187.200 C 215.662 187.200,215.427 187.753,216.779 175.389 C 217.895 165.179,217.998 164.629,218.938 163.835 C 220.475 162.534,220.661 161.869,221.615 154.260 C 222.631 146.156,222.472 145.164,219.905 143.599 C 217.510 142.138,215.646 142.515,213.871 144.817 C 211.974 147.277,211.727 147.276,209.839 144.800 C 207.949 142.322,205.842 142.011,203.531 143.870 " stroke="none" fill="#000000" fill-rule="evenodd"></path><path id="path3" d="M193.400 151.600 C 194.483 152.700,195.460 153.600,195.570 153.600 C 195.680 153.600,194.883 152.700,193.800 151.600 C 192.717 150.500,191.740 149.600,191.630 149.600 C 191.520 149.600,192.317 150.500,193.400 151.600 M116.305 211.883 C 116.802 211.979,117.522 211.975,117.905 211.875 C 118.287 211.775,117.880 211.696,117.000 211.701 C 116.120 211.705,115.807 211.787,116.305 211.883 M279.600 211.756 C 279.600 211.842,280.217 211.985,280.972 212.073 C 281.727 212.161,282.256 212.090,282.148 211.916 C 281.955 211.603,279.600 211.455,279.600 211.756 M171.778 230.000 C 171.778 236.930,171.833 239.765,171.899 236.300 C 171.966 232.835,171.966 227.165,171.899 223.700 C 171.833 220.235,171.778 223.070,171.778 230.000 M85.776 230.200 C 85.776 236.360,85.832 238.824,85.899 235.676 C 85.967 232.527,85.967 227.487,85.899 224.476 C 85.831 221.464,85.776 224.040,85.776 230.200 M163.309 222.000 C 163.309 222.990,163.387 223.395,163.482 222.900 C 163.578 222.405,163.578 221.595,163.482 221.100 C 163.387 220.605,163.309 221.010,163.309 222.000 M315.709 230.400 C 315.709 231.390,315.787 231.795,315.882 231.300 C 315.978 230.805,315.978 229.995,315.882 229.500 C 315.787 229.005,315.709 229.410,315.709 230.400 M218.909 230.800 C 218.909 231.790,218.987 232.195,219.082 231.700 C 219.178 231.205,219.178 230.395,219.082 229.900 C 218.987 229.405,218.909 229.810,218.909 230.800 M353.100 232.696 C 354.475 232.774,356.725 232.774,358.100 232.696 C 359.475 232.618,358.350 232.554,355.600 232.554 C 352.850 232.554,351.725 232.618,353.100 232.696 M267.709 243.200 C 267.709 244.190,267.787 244.595,267.882 244.100 C 267.978 243.605,267.978 242.795,267.882 242.300 C 267.787 241.805,267.709 242.210,267.709 243.200 M218.874 245.500 L 218.800 248.000 216.429 248.000 C 214.517 248.000,214.019 247.865,213.852 247.300 C 213.692 246.755,213.664 246.777,213.727 247.400 C 213.797 248.092,214.147 248.216,216.309 248.319 C 219.213 248.458,219.317 248.339,219.097 245.152 L 218.948 243.000 218.874 245.500 M106.691 245.089 C 107.401 245.177,108.661 245.179,109.491 245.092 C 110.321 245.005,109.740 244.933,108.200 244.931 C 106.660 244.929,105.981 245.000,106.691 245.089 M270.291 245.089 C 271.001 245.177,272.261 245.179,273.091 245.092 C 273.921 245.005,273.340 244.933,271.800 244.931 C 270.260 244.929,269.581 245.000,270.291 245.089 M364.561 247.200 C 364.601 248.224,372.320 249.037,373.247 248.115 C 373.421 247.942,371.605 247.856,369.211 247.924 C 364.934 248.047,364.855 248.033,364.690 247.124 C 364.536 246.274,364.526 246.280,364.561 247.200 M43.200 247.533 C 43.200 247.847,42.053 248.027,39.700 248.081 L 36.200 248.163 39.563 248.299 C 42.672 248.424,44.186 248.053,43.473 247.340 C 43.323 247.190,43.200 247.277,43.200 247.533 M198.178 247.564 C 198.409 247.939,197.461 248.022,194.077 247.926 C 191.655 247.857,189.758 247.935,189.861 248.100 C 189.963 248.265,191.916 248.400,194.200 248.400 C 198.073 248.400,199.459 248.054,198.345 247.366 C 198.043 247.180,197.984 247.250,198.178 247.564 M61.400 248.000 L 57.800 248.249 61.276 248.324 C 63.249 248.367,64.860 248.227,65.000 248.000 C 65.136 247.780,65.192 247.634,65.124 247.676 C 65.056 247.717,63.380 247.863,61.400 248.000 M83.000 248.000 L 79.400 248.249 82.876 248.324 C 84.849 248.367,86.460 248.227,86.600 248.000 C 86.736 247.780,86.792 247.634,86.724 247.676 C 86.656 247.717,84.980 247.863,83.000 248.000 M108.400 248.000 L 97.400 248.219 108.276 248.310 C 115.195 248.367,119.243 248.254,119.400 248.000 C 119.536 247.780,119.592 247.641,119.524 247.690 C 119.456 247.740,114.450 247.879,108.400 248.000 M140.500 248.294 C 141.545 248.376,143.255 248.376,144.300 248.294 C 145.345 248.212,144.490 248.144,142.400 248.144 C 140.310 248.144,139.455 248.212,140.500 248.294 M172.500 248.294 C 173.545 248.376,175.255 248.376,176.300 248.294 C 177.345 248.212,176.490 248.144,174.400 248.144 C 172.310 248.144,171.455 248.212,172.500 248.294 M247.312 248.295 C 248.364 248.377,249.984 248.376,250.912 248.292 C 251.840 248.208,250.980 248.141,249.000 248.142 C 247.020 248.143,246.260 248.212,247.312 248.295 M266.724 248.299 C 269.873 248.367,274.913 248.367,277.924 248.299 C 280.936 248.231,278.360 248.176,272.200 248.176 C 266.040 248.176,263.576 248.232,266.724 248.299 M294.921 248.298 C 297.077 248.371,300.497 248.370,302.521 248.298 C 304.544 248.225,302.780 248.166,298.600 248.167 C 294.420 248.167,292.764 248.226,294.921 248.298 M331.300 248.294 C 332.345 248.376,334.055 248.376,335.100 248.294 C 336.145 248.212,335.290 248.144,333.200 248.144 C 331.110 248.144,330.255 248.212,331.300 248.294 M342.500 248.294 C 343.545 248.376,345.255 248.376,346.300 248.294 C 347.345 248.212,346.490 248.144,344.400 248.144 C 342.310 248.144,341.455 248.212,342.500 248.294 M94.303 264.496 C 94.513 267.890,94.731 268.320,94.762 265.400 C 94.776 264.080,94.644 262.773,94.468 262.496 C 94.292 262.220,94.218 263.120,94.303 264.496 M100.649 262.615 C 100.512 262.973,100.424 263.926,100.453 264.733 C 100.501 266.044,100.538 265.987,100.795 264.200 C 101.103 262.071,101.055 261.558,100.649 262.615 M246.200 263.200 C 246.200 263.818,246.335 264.240,246.500 264.138 C 246.665 264.036,246.800 263.614,246.800 263.200 C 246.800 262.786,246.665 262.364,246.500 262.262 C 246.335 262.160,246.200 262.582,246.200 263.200 M287.612 262.200 C 287.612 262.420,287.787 262.870,288.000 263.200 C 288.258 263.600,288.390 263.633,288.394 263.300 C 288.417 261.372,290.370 262.940,290.513 265.002 L 290.666 267.204 290.633 264.902 C 290.600 262.618,290.591 262.600,289.400 262.600 C 288.740 262.600,288.068 262.420,287.906 262.200 C 287.710 261.933,287.612 261.933,287.612 262.200 M301.600 262.394 C 301.930 262.611,302.680 262.791,303.267 262.794 C 303.853 262.797,304.424 263.025,304.535 263.300 C 304.693 263.692,304.744 263.689,304.768 263.287 C 304.803 262.725,304.485 262.584,302.400 262.235 C 301.406 262.069,301.174 262.115,301.600 262.394 M137.883 262.660 C 138.676 262.832,138.781 263.144,138.913 265.726 L 139.061 268.600 139.030 265.600 C 139.001 262.693,138.969 262.598,138.000 262.534 C 137.152 262.479,137.134 262.498,137.883 262.660 M140.158 262.966 C 140.038 263.278,140.017 264.043,140.110 264.666 C 140.256 265.638,140.289 265.589,140.340 264.328 C 140.388 263.143,140.576 262.822,141.300 262.682 L 142.200 262.509 141.287 262.454 C 140.786 262.425,140.277 262.655,140.158 262.966 M253.045 262.728 C 252.933 262.908,253.373 262.977,254.021 262.882 C 254.670 262.787,255.200 262.640,255.200 262.555 C 255.200 262.250,253.243 262.407,253.045 262.728 M291.867 262.667 C 291.720 262.813,291.603 263.128,291.606 263.367 C 291.610 263.660,291.707 263.653,291.906 263.346 C 292.068 263.097,292.560 262.803,293.000 262.693 C 293.774 262.499,293.773 262.491,292.967 262.446 C 292.508 262.421,292.013 262.520,291.867 262.667 M215.595 265.482 C 215.488 267.067,215.544 268.219,215.721 268.041 C 215.897 267.864,215.985 266.567,215.916 265.159 L 215.791 262.600 215.595 265.482 M107.728 266.000 C 107.728 267.430,107.801 268.015,107.889 267.300 C 107.978 266.585,107.978 265.415,107.889 264.700 C 107.801 263.985,107.728 264.570,107.728 266.000 M175.701 267.000 C 175.705 267.880,175.787 268.193,175.883 267.695 C 175.979 267.198,175.975 266.478,175.875 266.095 C 175.775 265.713,175.696 266.120,175.701 267.000 M302.000 265.755 C 302.000 265.840,302.530 265.987,303.179 266.082 C 303.827 266.177,304.267 266.108,304.155 265.928 C 303.957 265.607,302.000 265.450,302.000 265.755 M302.700 268.682 C 303.195 268.778,304.005 268.778,304.500 268.682 C 304.995 268.587,304.590 268.509,303.600 268.509 C 302.610 268.509,302.205 268.587,302.700 268.682 " stroke="none" fill="#000000" fill-rule="evenodd"></path><path id="path4" d="M188.020 142.700 C 186.862 145.945,185.729 148.716,185.503 148.857 C 185.267 149.004,185.467 149.315,185.972 149.585 C 186.944 150.105,188.000 149.573,188.000 148.562 C 188.000 148.264,189.311 147.185,190.913 146.164 C 193.652 144.418,196.964 138.830,195.894 137.761 C 195.712 137.579,191.417 136.807,190.563 136.802 C 190.322 136.801,189.178 139.455,188.020 142.700 M191.637 148.377 C 191.331 148.566,191.230 148.925,191.404 149.207 C 191.634 149.578,191.807 149.531,192.092 149.021 C 192.555 148.194,192.366 147.927,191.637 148.377 M249.084 211.520 C 249.395 211.717,249.616 213.260,249.701 215.814 L 249.833 219.800 249.916 215.500 C 249.991 211.638,249.929 211.201,249.300 211.206 C 248.819 211.210,248.752 211.309,249.084 211.520 M141.700 212.294 C 142.745 212.376,144.455 212.376,145.500 212.294 C 146.545 212.212,145.690 212.144,143.600 212.144 C 141.510 212.144,140.655 212.212,141.700 212.294 M174.112 212.295 C 175.164 212.377,176.784 212.376,177.712 212.292 C 178.640 212.208,177.780 212.141,175.800 212.142 C 173.820 212.143,173.060 212.212,174.112 212.295 M293.100 212.289 C 293.815 212.378,294.985 212.378,295.700 212.289 C 296.415 212.201,295.830 212.128,294.400 212.128 C 292.970 212.128,292.385 212.201,293.100 212.289 M106.115 215.096 C 107.388 215.176,109.368 215.175,110.515 215.094 C 111.662 215.014,110.620 214.949,108.200 214.950 C 105.780 214.951,104.842 215.016,106.115 215.096 M269.900 215.095 C 271.055 215.176,272.945 215.176,274.100 215.095 C 275.255 215.014,274.310 214.948,272.000 214.948 C 269.690 214.948,268.745 215.014,269.900 215.095 M85.693 218.000 C 85.693 218.770,85.775 219.085,85.876 218.700 C 85.976 218.315,85.976 217.685,85.876 217.300 C 85.775 216.915,85.693 217.230,85.693 218.000 M215.734 219.600 C 215.734 221.250,215.805 221.925,215.891 221.100 C 215.978 220.275,215.978 218.925,215.891 218.100 C 215.805 217.275,215.734 217.950,215.734 219.600 M296.977 228.600 C 296.977 234.980,297.032 237.534,297.099 234.276 C 297.167 231.017,297.166 225.797,297.099 222.676 C 297.031 219.554,296.976 222.220,296.977 228.600 M42.578 229.600 C 42.578 236.310,42.632 239.055,42.699 235.700 C 42.766 232.345,42.766 226.855,42.699 223.500 C 42.632 220.145,42.578 222.890,42.578 229.600 M139.778 230.400 C 139.778 237.330,139.833 240.165,139.899 236.700 C 139.966 233.235,139.966 227.565,139.899 224.100 C 139.833 220.635,139.778 223.470,139.778 230.400 M219.200 219.400 C 219.200 219.950,219.269 220.400,219.353 220.400 C 219.438 220.400,219.593 219.950,219.698 219.400 C 219.803 218.850,219.734 218.400,219.545 218.400 C 219.355 218.400,219.200 218.850,219.200 219.400 M262.177 230.000 C 262.177 236.490,262.232 239.145,262.299 235.900 C 262.366 232.655,262.366 227.345,262.299 224.100 C 262.232 220.855,262.177 223.510,262.177 230.000 M64.150 223.400 C 64.151 225.820,64.216 226.758,64.296 225.485 C 64.376 224.212,64.375 222.232,64.294 221.085 C 64.214 219.938,64.149 220.980,64.150 223.400 M144.959 225.200 C 144.959 228.390,145.021 229.695,145.097 228.100 C 145.173 226.505,145.173 223.895,145.097 222.300 C 145.021 220.705,144.959 222.010,144.959 225.200 M330.574 230.000 C 330.574 235.610,330.630 237.905,330.699 235.100 C 330.768 232.295,330.768 227.705,330.699 224.900 C 330.630 222.095,330.574 224.390,330.574 230.000 M103.778 224.200 L 103.800 227.800 106.102 227.833 L 108.404 227.866 106.217 227.713 L 104.030 227.561 103.892 224.080 L 103.755 220.600 103.778 224.200 M291.773 230.000 C 291.773 235.390,291.830 237.595,291.899 234.900 C 291.968 232.205,291.968 227.795,291.899 225.100 C 291.830 222.405,291.773 224.610,291.773 230.000 M335.772 230.200 C 335.772 235.260,335.829 237.275,335.899 234.677 C 335.969 232.080,335.968 227.940,335.898 225.477 C 335.828 223.015,335.771 225.140,335.772 230.200 M218.901 227.800 C 218.905 228.680,218.987 228.993,219.083 228.495 C 219.179 227.998,219.175 227.278,219.075 226.895 C 218.975 226.513,218.896 226.920,218.901 227.800 M268.707 227.890 C 269.426 227.979,270.506 227.977,271.107 227.886 C 271.708 227.795,271.120 227.722,269.800 227.724 C 268.480 227.726,267.988 227.801,268.707 227.890 M178.500 229.476 C 178.885 229.576,179.515 229.576,179.900 229.476 C 180.285 229.375,179.970 229.293,179.200 229.293 C 178.430 229.293,178.115 229.375,178.500 229.476 M107.700 230.676 C 108.085 230.776,108.715 230.776,109.100 230.676 C 109.485 230.575,109.170 230.493,108.400 230.493 C 107.630 230.493,107.315 230.575,107.700 230.676 M271.300 230.676 C 271.685 230.776,272.315 230.776,272.700 230.676 C 273.085 230.575,272.770 230.493,272.000 230.493 C 271.230 230.493,270.915 230.575,271.300 230.676 M64.155 235.800 C 64.156 238.660,64.220 239.778,64.297 238.283 C 64.374 236.789,64.374 234.449,64.296 233.083 C 64.218 231.718,64.155 232.940,64.155 235.800 M103.737 233.800 C 103.739 235.560,103.809 236.230,103.893 235.289 C 103.978 234.349,103.977 232.909,103.891 232.089 C 103.805 231.270,103.736 232.040,103.737 233.800 M144.972 233.728 C 144.861 234.019,144.823 236.044,144.888 238.228 L 145.006 242.200 145.203 237.699 C 145.398 233.245,145.366 232.701,144.972 233.728 M148.500 233.887 C 149.105 233.978,150.095 233.978,150.700 233.887 C 151.305 233.795,150.810 233.720,149.600 233.720 C 148.390 233.720,147.895 233.795,148.500 233.887 M300.305 244.683 C 300.802 244.779,301.522 244.775,301.905 244.675 C 302.287 244.575,301.880 244.496,301.000 244.501 C 300.120 244.505,299.807 244.587,300.305 244.683 M304.900 244.676 C 305.285 244.776,305.915 244.776,306.300 244.676 C 306.685 244.575,306.370 244.493,305.600 244.493 C 304.830 244.493,304.515 244.575,304.900 244.676 M347.701 246.600 C 347.705 247.480,347.787 247.793,347.883 247.295 C 347.979 246.798,347.975 246.078,347.875 245.695 C 347.775 245.313,347.696 245.720,347.701 246.600 M70.159 262.334 C 70.399 262.721,71.853 262.680,72.259 262.275 C 72.410 262.124,71.953 262.000,71.243 262.000 C 70.533 262.000,70.046 262.150,70.159 262.334 M74.000 262.153 C 74.000 262.508,75.618 262.694,75.823 262.362 C 75.946 262.163,75.587 262.000,75.024 262.000 C 74.461 262.000,74.000 262.069,74.000 262.153 M108.400 262.153 C 108.400 262.238,108.850 262.393,109.400 262.498 C 109.950 262.603,110.400 262.534,110.400 262.345 C 110.400 262.155,109.950 262.000,109.400 262.000 C 108.850 262.000,108.400 262.069,108.400 262.153 M136.440 262.900 C 135.908 263.766,135.915 263.774,136.646 263.126 C 137.209 262.626,138.047 262.473,139.902 262.530 C 141.276 262.572,142.400 262.470,142.400 262.303 C 142.400 261.460,136.991 262.002,136.440 262.900 M161.200 262.326 C 161.200 262.697,164.306 262.627,164.686 262.248 C 164.822 262.111,164.093 262.000,163.067 262.000 C 162.040 262.000,161.200 262.147,161.200 262.326 M172.900 262.276 C 173.285 262.376,173.915 262.376,174.300 262.276 C 174.685 262.175,174.370 262.093,173.600 262.093 C 172.830 262.093,172.515 262.175,172.900 262.276 M224.885 265.100 C 224.926 266.805,225.024 267.716,225.103 267.125 C 225.183 266.533,225.552 265.969,225.924 265.871 C 226.538 265.709,226.536 265.689,225.900 265.646 C 224.733 265.569,224.915 262.511,226.100 262.282 C 226.876 262.133,226.849 262.101,225.906 262.054 L 224.813 262.000 224.885 265.100 M252.400 262.705 C 252.400 263.171,252.521 263.197,252.967 262.828 C 253.313 262.540,254.555 262.407,256.167 262.484 C 257.615 262.554,258.800 262.464,258.800 262.285 C 258.800 262.105,257.360 261.993,255.600 262.036 C 253.075 262.096,252.400 262.238,252.400 262.705 M265.508 264.900 C 265.705 269.177,265.933 269.516,265.911 265.500 C 265.900 263.575,265.775 262.000,265.633 262.000 C 265.490 262.000,265.434 263.305,265.508 264.900 M288.483 262.216 C 288.827 262.561,294.000 262.644,294.000 262.306 C 294.000 262.138,292.710 262.000,291.133 262.000 C 289.557 262.000,288.364 262.097,288.483 262.216 M303.000 262.285 C 303.660 262.376,304.425 262.743,304.700 263.101 C 305.146 263.683,305.200 263.658,305.200 262.876 C 305.200 262.103,305.001 262.007,303.500 262.060 C 302.166 262.107,302.058 262.155,303.000 262.285 M324.159 262.334 C 324.399 262.721,325.853 262.680,326.259 262.275 C 326.410 262.124,325.953 262.000,325.243 262.000 C 324.533 262.000,324.046 262.150,324.159 262.334 M328.000 262.153 C 328.000 262.508,329.618 262.694,329.823 262.362 C 329.946 262.163,329.587 262.000,329.024 262.000 C 328.461 262.000,328.000 262.069,328.000 262.153 M210.928 265.200 C 210.928 266.630,211.001 267.215,211.089 266.500 C 211.178 265.785,211.178 264.615,211.089 263.900 C 211.001 263.185,210.928 263.770,210.928 265.200 M255.334 265.600 C 255.334 267.250,255.405 267.925,255.491 267.100 C 255.578 266.275,255.578 264.925,255.491 264.100 C 255.405 263.275,255.334 263.950,255.334 265.600 M266.541 265.000 C 266.545 266.320,266.616 267.096,266.699 266.725 C 266.782 266.353,267.153 265.969,267.525 265.871 C 268.158 265.704,268.158 265.690,267.524 265.646 C 267.049 265.614,266.802 265.154,266.691 264.100 C 266.602 263.247,266.537 263.635,266.541 265.000 M300.914 264.600 C 300.917 265.700,300.995 266.103,301.087 265.495 C 301.179 264.886,301.177 263.986,301.082 263.495 C 300.987 263.003,300.911 263.500,300.914 264.600 M224.134 266.000 C 224.134 267.650,224.205 268.325,224.291 267.500 C 224.378 266.675,224.378 265.325,224.291 264.500 C 224.205 263.675,224.134 264.350,224.134 266.000 M211.693 266.000 C 211.693 266.770,211.775 267.085,211.876 266.700 C 211.976 266.315,211.976 265.685,211.876 265.300 C 211.775 264.915,211.693 265.230,211.693 266.000 M304.400 265.131 C 304.400 265.313,303.905 265.426,303.300 265.384 C 302.677 265.339,302.547 265.386,303.000 265.491 C 303.440 265.593,304.025 265.861,304.300 266.087 C 304.672 266.393,304.800 266.281,304.800 265.649 C 304.800 265.182,304.710 264.800,304.600 264.800 C 304.490 264.800,304.400 264.949,304.400 265.131 M72.501 267.400 C 72.505 268.280,72.587 268.593,72.683 268.095 C 72.779 267.598,72.775 266.878,72.675 266.495 C 72.575 266.113,72.496 266.520,72.501 267.400 M278.800 266.155 C 278.800 266.240,279.330 266.387,279.979 266.482 C 280.627 266.577,281.067 266.508,280.955 266.328 C 280.757 266.007,278.800 265.850,278.800 266.155 M326.501 267.400 C 326.505 268.280,326.587 268.593,326.683 268.095 C 326.779 267.598,326.775 266.878,326.675 266.495 C 326.575 266.113,326.496 266.520,326.501 267.400 " stroke="none" fill="#000000" fill-rule="evenodd"></path></g></svg>